<svg xmlns="http://www.w3.org/2000/svg" viewBox="0 0 283.19 226.87"><defs><style>.cls-1,.cls-20{opacity:0.1;}.cls-2{fill:#3d3d3d;}.cls-3{fill:#5f5541;}.cls-4{fill:#353030;}.cls-5{fill:#2d2828;}.cls-6{fill:#332f2f;}.cls-7{fill:#423c3c;}.cls-8{fill:#3f3a3a;}.cls-9{fill:#3d3737;}.cls-10{fill:#302c2c;}.cls-11{fill:#2a2a2a;}.cls-12{fill:#282828;}.cls-13{fill:#636363;}.cls-14{fill:#747474;}.cls-15{fill:#2c2c2c;}.cls-16{fill:#949090;}.cls-17{fill:#7f7e7e;}.cls-18{opacity:0.26;}.cls-19{fill:#d29d34;}.cls-20,.cls-23,.cls-29,.cls-43,.cls-51,.cls-54{fill:#fff;}.cls-21{fill:#3b3b3b;}.cls-22{fill:#2b2626;}.cls-23,.cls-27{opacity:0.17;}.cls-24{fill:#282625;}.cls-25{fill:#1a1a1a;}.cls-26{opacity:0.11;}.cls-28{opacity:0.07;}.cls-30{fill:#af8027;}.cls-31{fill:#ebb342;}.cls-32{fill:#c58e2e;}.cls-33{fill:#414141;}.cls-34{fill:#e1ac38;}.cls-35,.cls-54{opacity:0.12;}.cls-36{fill:#ac751b;}.cls-37{fill:#dbdbdb;}.cls-38{opacity:0.18;}.cls-39{fill:#313131;}.cls-40{fill:#bc852b;}.cls-41{fill:#d59f34;}.cls-42,.cls-51{opacity:0.08;}.cls-43{opacity:0.3;}.cls-44{fill:#c69730;}.cls-45{fill:#e8ae3c;}.cls-46{fill:#555050;}.cls-47{fill:#6b5e49;}.cls-48{fill:#e5a185;}.cls-49{fill:#e09178;}.cls-50{fill:#342720;}.cls-52{fill:#4f372d;}.cls-53{fill:#422e26;}</style></defs><title>Asset 3</title><g id="Layer_2" data-name="Layer 2"><g id="_ÎÓÈ_1" data-name="—ÎÓÈ_1"><path class="cls-1" d="M283.19,218.43a1197.22,1197.22,0,0,1-141.6,8.44A1196.93,1196.93,0,0,1,0,218.43a1192,1192,0,0,1,283.19,0Z"/><path id="_Path_" data-name="&lt;Path&gt;" class="cls-2" d="M88,58.05c.7,0,1.21-1,1-2.08-.76-4.19-3-12.57-8.09-6.72C74.69,56.5,84.34,57.81,88,58.05Z"/><polygon id="_Path_2" data-name="&lt;Path&gt;" class="cls-2" points="101.6 86.37 89.85 74.87 77.8 74.87 77.84 79.3 88.53 80.6 96.91 93.07 101.6 86.37"/><g id="_Group_" data-name="&lt;Group&gt;"><path id="_Path_3" data-name="&lt;Path&gt;" class="cls-2" d="M93.67,76.35l-.85-10a10.41,10.41,0,0,0-2.69-6.55L85.6,55.57l1.56-1.66,4.52,4.23a12.39,12.39,0,0,1,3.4,8l.86,10Z"/></g><path id="_Path_4" data-name="&lt;Path&gt;" class="cls-3" d="M163.25,61.4s3.67-20.66,27.51-17.76,9.3,22.18,9.3,22.18l-31.22,2.92Z"/><g id="_Group_2" data-name="&lt;Group&gt;"><path id="_Path_5" data-name="&lt;Path&gt;" class="cls-3" d="M100.53,85.59c-3.34,0-6.82-.09-10.47-.27l.52-10.23c50.19,2.54,66.88-14.64,67-14.81l7.6,6.87C164.5,68,148.15,85.59,100.53,85.59Z"/></g><g id="_Group_3" data-name="&lt;Group&gt;"><polygon id="_Path_6" data-name="&lt;Path&gt;" class="cls-4" points="170.16 153.52 166.93 152.49 168.08 155.68 170.16 153.52"/><polygon id="_Path_7" data-name="&lt;Path&gt;" class="cls-4" points="163.25 147.24 156.74 146.83 160.32 149.24 163.25 147.24"/><path id="_Path_8" data-name="&lt;Path&gt;" class="cls-4" d="M174.58,190.91a20.5,20.5,0,0,1,.7,2.43l-2.32.49Z"/><path id="_Path_9" data-name="&lt;Path&gt;" class="cls-4" d="M172,199.07c.41.3.64,2.6.64,2.6l-3,.18Z"/><polygon id="_Path_10" data-name="&lt;Path&gt;" class="cls-4" points="168.68 205.92 168.66 208.3 164.94 208.17 168.68 205.92"/><path id="_Path_11" data-name="&lt;Path&gt;" class="cls-4" d="M163.6,211.15c.35.41-.66,2.61-.66,2.61l-5.26,0Z"/><path id="_Path_12" data-name="&lt;Path&gt;" class="cls-4" d="M132.69,215.86l24.92-.23-3.53-2-25.56-.44,0,1C128.47,214.69,132.17,215.85,132.69,215.86Z"/><polygon id="_Path_13" data-name="&lt;Path&gt;" class="cls-5" points="112.65 180.82 109.09 181.84 108.93 186.41 113.59 187.34 112.65 180.82"/><polygon id="_Path_14" data-name="&lt;Path&gt;" class="cls-5" points="113.34 175.57 109.69 173.31 110.46 169.29 114.5 167.97 113.34 175.57"/><polygon id="_Path_15" data-name="&lt;Path&gt;" class="cls-5" points="115.71 164.09 112.82 162.27 114.34 159 118.73 159.16 115.71 164.09"/><polygon id="_Path_16" data-name="&lt;Path&gt;" class="cls-5" points="119.65 155.17 118.03 152.59 120.66 149.82 123.66 151.53 119.65 155.17"/><polygon id="_Path_17" data-name="&lt;Path&gt;" class="cls-5" points="127.04 148.56 127.14 145.81 131.2 144.93 132.42 147.6 127.04 148.56"/><path id="_Path_18" data-name="&lt;Path&gt;" class="cls-5" d="M125.55,212.26c-.2.11-4.41.48-4.41.48l-2-2.14,2.13-2Z"/><path id="_Path_19" data-name="&lt;Path&gt;" class="cls-5" d="M119.24,206.26c-.2-.07-4-.15-4-.15L113.76,203l2.85-1.56Z"/><polygon id="_Path_20" data-name="&lt;Path&gt;" class="cls-5" points="115.41 197.81 111.53 197.1 110.83 193.81 114.14 192.5 115.41 197.81"/><ellipse id="_Path_21" data-name="&lt;Path&gt;" class="cls-6" cx="131.31" cy="179.87" rx="33.74" ry="19.16" transform="translate(-53.17 304.63) rotate(-87.94)"/><rect id="_Rectangle_" data-name="&lt;Rectangle&gt;" class="cls-6" x="131.3" y="146.59" width="25.57" height="67.48" transform="translate(6.46 -4.98) rotate(2.02)"/><polygon id="_Path_22" data-name="&lt;Path&gt;" class="cls-4" points="112.14 181.02 121.18 184.86 138.37 181.27 134.94 182.81 121.26 187.61 109.39 181.85 112.14 181.02"/><polygon id="_Path_23" data-name="&lt;Path&gt;" class="cls-7" points="141.27 164.76 138.37 163.06 139.89 159.9 144.28 160.06 141.27 164.76"/><polygon id="_Path_24" data-name="&lt;Path&gt;" class="cls-7" points="160.94 148.5 163.25 147.24 166.24 149.49 165.1 151.51 160.94 148.5"/><path id="_Path_25" data-name="&lt;Path&gt;" class="cls-7" d="M167.75,153.72a9.65,9.65,0,0,1,2.41-.2l1.44,2.57-1.57,1Z"/><polygon id="_Path_26" data-name="&lt;Path&gt;" class="cls-7" points="171.46 159.93 174.04 160.42 174.87 163.28 173.08 163.94 171.46 159.93"/><polygon id="_Path_27" data-name="&lt;Path&gt;" class="cls-7" points="173.69 166.42 175.88 166.78 176.42 169.71 174.62 170.23 173.69 166.42"/><polygon id="_Path_28" data-name="&lt;Path&gt;" class="cls-7" points="175.22 173.17 177.18 173.87 177.37 177.37 175.1 177.29 175.22 173.17"/><polygon id="_Path_29" data-name="&lt;Path&gt;" class="cls-7" points="175.19 180.11 177.21 180.98 177.09 184.24 174.86 185.35 175.19 180.11"/><path id="_Path_30" data-name="&lt;Path&gt;" class="cls-7" d="M174.78,188.13c0,.06,1.45,1.81,1.45,1.81l-.95,3.49-2.35-.08Z"/><polygon id="_Path_31" data-name="&lt;Path&gt;" class="cls-7" points="172.84 195.78 173.96 198.79 172.63 201.67 170.51 201.31 172.84 195.78"/><polygon id="_Path_32" data-name="&lt;Path&gt;" class="cls-7" points="169.86 202.89 170.36 205.66 168.67 208.17 167.17 207.15 169.86 202.89"/><polygon id="_Path_33" data-name="&lt;Path&gt;" class="cls-7" points="165.21 209.03 165.09 212.23 162.82 213.75 161.63 211.99 165.21 209.03"/><path id="_Path_34" data-name="&lt;Path&gt;" class="cls-7" d="M159.35,213c0,.18-1.74,2.68-1.74,2.68l-3.64-.13.07-1.92Z"/><polygon id="_Path_35" data-name="&lt;Path&gt;" class="cls-4" points="113.59 168.27 122.61 173.38 140.07 168.42 121.83 176.79 110.46 169.29 113.59 168.27"/><polygon id="_Path_36" data-name="&lt;Path&gt;" class="cls-8" points="110.46 169.29 121.99 175.88 136.03 169.73 137.19 171.83 135.26 173.75 121.94 179.73 109.69 173.31 110.46 169.29"/><polygon id="_Path_37" data-name="&lt;Path&gt;" class="cls-4" points="114.47 159 116.6 159.08 123.8 162.54 139.91 159.53 123.15 165.77 114.47 159"/><polygon id="_Path_38" data-name="&lt;Path&gt;" class="cls-7" points="138.91 176.02 135.26 173.75 136.03 169.73 140.07 168.42 138.91 176.02"/><polygon id="_Path_39" data-name="&lt;Path&gt;" class="cls-4" points="118.03 152.59 126.87 154.97 143.59 153.04 144.98 155.25 126.4 158.73 119.35 154.7 118.03 152.59"/><polygon id="_Path_40" data-name="&lt;Path&gt;" class="cls-8" points="112.81 162.35 122.73 168.27 138.37 163.06 140.34 160.8 139.89 159.9 123.2 164.41 114.34 159.11 112.81 162.35"/><polygon id="_Path_41" data-name="&lt;Path&gt;" class="cls-4" points="127.09 147.29 133.77 149.43 152.65 149.01 153.8 146.93 152.76 146.26 136.67 146.55 127.14 145.81 127.09 147.29"/><polygon id="_Path_42" data-name="&lt;Path&gt;" class="cls-8" points="118.03 152.59 126.84 155.83 143.59 153.04 146.43 152.05 146.22 150.27 128.97 152.07 120.66 149.82 118.03 152.59"/><polygon id="_Path_43" data-name="&lt;Path&gt;" class="cls-8" points="127.2 145.82 135.26 147.55 152.76 146.3 155.42 146.39 156.54 145.36 137.4 145.5 131.23 144.93 127.2 145.82"/><polygon id="_Path_44" data-name="&lt;Path&gt;" class="cls-7" points="152.17 148.99 152.26 146.24 156.54 145.36 157.66 148.04 152.17 148.99"/><polygon id="_Path_45" data-name="&lt;Path&gt;" class="cls-7" points="145.21 155.62 143.59 153.04 146.22 150.27 149.23 151.98 145.21 155.62"/><path id="_Path_46" data-name="&lt;Path&gt;" class="cls-4" d="M113.3,192.83l10.36,3.61,15.13-3.07s-14.35,6.54-14.64,6.59-13.32-6.15-13.32-6.15Z"/><polygon id="_Path_47" data-name="&lt;Path&gt;" class="cls-8" points="109.09 181.84 120.78 187.12 135.26 182.3 136.02 184.89 135.4 186.94 121.34 191.44 108.93 186.41 109.09 181.84"/><polygon id="_Path_48" data-name="&lt;Path&gt;" class="cls-7" points="138.52 181.27 135.26 182.3 135.1 186.88 139.61 187.81 138.52 181.27"/><polygon id="_Path_49" data-name="&lt;Path&gt;" class="cls-4" points="116.17 201.71 128.5 204.52 142.18 201.91 138.78 204.45 129.59 207.37 113.76 203.03 116.17 201.71"/><polygon id="_Path_50" data-name="&lt;Path&gt;" class="cls-8" points="110.83 193.81 123.89 199.26 136.39 194.26 137.84 195.97 137.09 197.55 125.63 202.81 111.53 197.1 110.83 193.81"/><polygon id="_Path_51" data-name="&lt;Path&gt;" class="cls-4" points="121.22 208.56 134.44 211.6 146.2 209.57 146.78 211.1 135.01 214.2 119.09 210.6 121.22 208.56"/><polygon id="_Path_52" data-name="&lt;Path&gt;" class="cls-7" points="140.98 198.26 137.09 197.55 136.39 194.26 139.7 192.94 140.98 198.26"/><polygon id="_Path_53" data-name="&lt;Path&gt;" class="cls-8" points="113.76 203.03 129.15 206.78 139.33 203.47 141.28 204.69 140.81 206.56 130.23 209.97 115.25 206.11 113.76 203.03"/><path id="_Path_54" data-name="&lt;Path&gt;" class="cls-7" d="M144.81,206.7c-.2-.06-4-.14-4-.14l-1.48-3.09,2.85-1.56Z"/><path id="_Path_55" data-name="&lt;Path&gt;" class="cls-8" d="M119.09,210.6l15.29,2.61,10.27-2.16a11.78,11.78,0,0,1,2,.87,11,11,0,0,1,.09,1.26l-11.4,2.12-14.17-2.56Z"/><path id="_Path_56" data-name="&lt;Path&gt;" class="cls-7" d="M151.12,212.71c-.2.11-4.41.47-4.41.47l-2.06-2.13,2.14-2.05Z"/><ellipse id="_Path_57" data-name="&lt;Path&gt;" class="cls-9" cx="156.86" cy="180.78" rx="33.74" ry="19.16" transform="translate(-29.44 331.04) rotate(-87.94)"/><ellipse id="_Path_58" data-name="&lt;Path&gt;" class="cls-10" cx="156.86" cy="180.78" rx="29.15" ry="16.55" transform="translate(-29.44 331.04) rotate(-87.94)"/><path id="_Path_59" data-name="&lt;Path&gt;" class="cls-11" d="M166.27,181.11c-.34,9.52-4.83,17.09-10,16.91s-9.13-8.05-8.79-17.58,4.83-17.09,10-16.91S166.61,171.59,166.27,181.11Z"/><path id="_Path_60" data-name="&lt;Path&gt;" class="cls-12" d="M157.41,165.26a5.13,5.13,0,0,0-2.81.76c3.23,2.23,5.4,8.08,5.16,14.86s-2.83,12.46-6.21,14.45a5.18,5.18,0,0,0,2.75,1c4.68.16,8.72-6.65,9-15.22S162.09,165.42,157.41,165.26Z"/><g id="_Group_4" data-name="&lt;Group&gt;"><g id="_Group_5" data-name="&lt;Group&gt;"><polygon id="_Path_61" data-name="&lt;Path&gt;" class="cls-13" points="159.68 178.38 159.32 178.37 159.35 176.3 159.71 176.31 159.68 178.38"/><path id="_Path_62" data-name="&lt;Path&gt;" class="cls-13" d="M159.85,177.35c0,.57-.25,1-.53,1s-.51-.47-.51-1,.25-1,.54-1S159.86,176.78,159.85,177.35Z"/><path id="_Path_63" data-name="&lt;Path&gt;" class="cls-14" d="M160.21,177.36c0,.57-.24,1-.53,1s-.51-.48-.5-1,.25-1,.53-1S160.22,176.79,160.21,177.36Z"/></g><g id="_Group_6" data-name="&lt;Group&gt;"><polygon id="_Path_64" data-name="&lt;Path&gt;" class="cls-13" points="154.06 175.79 153.7 175.78 153.73 173.72 154.09 173.73 154.06 175.79"/><path id="_Path_65" data-name="&lt;Path&gt;" class="cls-13" d="M154.23,174.77c0,.57-.24,1-.53,1s-.51-.48-.5-1.05.24-1,.53-1S154.24,174.19,154.23,174.77Z"/><path id="_Path_66" data-name="&lt;Path&gt;" class="cls-14" d="M154.6,174.78c0,.57-.25,1-.53,1s-.52-.47-.51-1,.25-1,.53-1S154.6,174.21,154.6,174.78Z"/></g></g><path id="_Path_67" data-name="&lt;Path&gt;" class="cls-11" d="M162.72,181c-.21,5.93-3,10.65-6.25,10.54s-5.68-5-5.47-11,3-10.65,6.24-10.53S162.93,175.05,162.72,181Z"/></g><rect id="_Rectangle_2" data-name="&lt;Rectangle&gt;" class="cls-15" x="149.52" y="175.57" width="58.29" height="15.63" rx="7.43" ry="7.43"/><g id="_Group_7" data-name="&lt;Group&gt;"><polygon id="_Path_68" data-name="&lt;Path&gt;" class="cls-4" points="248.85 155.98 245.75 154.91 246.79 158.03 248.85 155.98"/><polygon id="_Path_69" data-name="&lt;Path&gt;" class="cls-4" points="242.32 149.73 236.03 149.18 239.44 151.6 242.32 149.73"/><path id="_Path_70" data-name="&lt;Path&gt;" class="cls-4" d="M252.27,192.36a22,22,0,0,1,.61,2.37l-2.25.43Z"/><path id="_Path_71" data-name="&lt;Path&gt;" class="cls-4" d="M249.57,200.22c.39.3.56,2.53.56,2.53l-2.93.11Z"/><polygon id="_Path_72" data-name="&lt;Path&gt;" class="cls-4" points="246.21 206.79 246.14 209.09 242.54 208.88 246.21 206.79"/><path id="_Path_73" data-name="&lt;Path&gt;" class="cls-4" d="M241.18,211.74c.32.41-.7,2.52-.7,2.52l-5.09-.08Z"/><path id="_Path_74" data-name="&lt;Path&gt;" class="cls-4" d="M208.73,216h26.55l-3.36-2-24.72-1-.06,1C207.12,214.38,208.23,215.93,208.73,216Z"/><polygon id="_Path_75" data-name="&lt;Path&gt;" class="cls-5" points="192.61 181.15 189.14 182.05 188.88 186.49 193.36 187.5 192.61 181.15"/><polygon id="_Path_76" data-name="&lt;Path&gt;" class="cls-5" points="193.4 176.07 189.92 173.79 190.76 169.91 194.7 168.73 193.4 176.07"/><polygon id="_Path_77" data-name="&lt;Path&gt;" class="cls-5" points="195.95 164.98 193.19 163.15 194.75 160.01 198.98 160.27 195.95 164.98"/><polygon id="_Path_78" data-name="&lt;Path&gt;" class="cls-5" points="199.97 156.42 198.46 153.89 201.07 151.26 203.93 152.99 199.97 156.42"/><polygon id="_Path_79" data-name="&lt;Path&gt;" class="cls-5" points="207.27 150.18 207.43 147.51 211.37 146.75 212.49 149.37 207.27 150.18"/><path id="_Path_80" data-name="&lt;Path&gt;" class="cls-5" d="M204.36,212c-.2.1-4.28.36-4.28.36l-1.94-2.12,2.12-1.93Z"/><path id="_Path_81" data-name="&lt;Path&gt;" class="cls-5" d="M198.39,206c-.19-.07-3.86-.23-3.86-.23l-1.36-3,2.79-1.45Z"/><polygon id="_Path_82" data-name="&lt;Path&gt;" class="cls-5" points="194.88 197.7 191.14 196.92 190.54 193.71 193.77 192.51 194.88 197.7"/><ellipse id="_Path_83" data-name="&lt;Path&gt;" class="cls-6" cx="210.67" cy="180.66" rx="32.74" ry="18.53" transform="translate(17.78 380.19) rotate(-86.58)"/><rect id="_Path_84" data-name="&lt;Path&gt;" class="cls-6" x="190.27" y="169.02" width="65.49" height="24.73" transform="translate(28.76 393.29) rotate(-86.61)"/><polygon id="_Path_85" data-name="&lt;Path&gt;" class="cls-4" points="192.11 181.33 200.76 185.26 217.47 182.17 214.11 183.59 200.78 187.94 189.43 182.07 192.11 181.33"/><polygon id="_Path_86" data-name="&lt;Path&gt;" class="cls-7" points="220.65 166.22 217.89 164.5 219.44 161.48 223.67 161.73 220.65 166.22"/><polygon id="_Path_87" data-name="&lt;Path&gt;" class="cls-7" points="240.06 150.9 242.32 149.73 245.16 151.98 244.01 153.91 240.06 150.9"/><path id="_Path_88" data-name="&lt;Path&gt;" class="cls-7" d="M246.52,156.12a9.21,9.21,0,0,1,2.33-.14l1.34,2.53-1.54.91Z"/><polygon id="_Path_89" data-name="&lt;Path&gt;" class="cls-7" points="249.96 162.22 252.45 162.76 253.19 165.56 251.44 166.15 249.96 162.22"/><polygon id="_Path_90" data-name="&lt;Path&gt;" class="cls-7" points="251.97 168.58 254.08 168.98 254.54 171.83 252.78 172.3 251.97 168.58"/><polygon id="_Path_91" data-name="&lt;Path&gt;" class="cls-7" points="253.29 175.16 255.17 175.88 255.27 179.28 253.09 179.15 253.29 175.16"/><polygon id="_Path_92" data-name="&lt;Path&gt;" class="cls-7" points="253.1 181.89 255.04 182.78 254.85 185.94 252.66 186.97 253.1 181.89"/><path id="_Path_93" data-name="&lt;Path&gt;" class="cls-7" d="M252.52,189.66c0,.06,1.37,1.79,1.37,1.79l-1,3.37-2.27-.13Z"/><polygon id="_Path_94" data-name="&lt;Path&gt;" class="cls-7" points="250.47 197.04 251.48 199.99 250.13 202.75 248.09 202.35 250.47 197.04"/><polygon id="_Path_95" data-name="&lt;Path&gt;" class="cls-7" points="247.42 203.87 247.84 206.57 246.15 208.97 244.73 207.94 247.42 203.87"/><polygon id="_Path_96" data-name="&lt;Path&gt;" class="cls-7" points="242.78 209.72 242.6 212.83 240.37 214.25 239.25 212.52 242.78 209.72"/><path id="_Path_97" data-name="&lt;Path&gt;" class="cls-7" d="M237,213.48c0,.17-1.74,2.56-1.74,2.56l-3.51-.21.11-1.86Z"/><polygon id="_Path_98" data-name="&lt;Path&gt;" class="cls-4" points="193.81 168.99 202.41 174.16 219.41 169.75 201.57 177.45 190.76 169.91 193.81 168.99"/><polygon id="_Path_99" data-name="&lt;Path&gt;" class="cls-8" points="190.76 169.91 201.76 176.57 215.47 170.93 216.55 172.99 214.63 174.81 201.62 180.31 189.92 173.79 190.76 169.91"/><polygon id="_Path_100" data-name="&lt;Path&gt;" class="cls-4" points="194.87 160.02 196.93 160.14 203.81 163.67 219.46 161.11 203.11 166.78 194.87 160.02"/><polygon id="_Path_101" data-name="&lt;Path&gt;" class="cls-7" points="218.11 177.09 214.63 174.81 215.47 170.93 219.41 169.75 218.11 177.09"/><polygon id="_Path_102" data-name="&lt;Path&gt;" class="cls-4" points="198.46 153.89 206.96 156.39 223.18 154.9 224.46 157.08 206.42 160.03 199.69 155.96 198.46 153.89"/><polygon id="_Path_103" data-name="&lt;Path&gt;" class="cls-8" points="193.19 163.23 202.65 169.2 217.89 164.5 219.85 162.36 219.44 161.48 203.19 165.46 194.74 160.12 193.19 163.23"/><polygon id="_Path_104" data-name="&lt;Path&gt;" class="cls-4" points="207.34 148.94 213.76 151.17 232.03 151.2 233.18 149.21 232.19 148.54 216.63 148.45 207.43 147.51 207.34 148.94"/><polygon id="_Path_105" data-name="&lt;Path&gt;" class="cls-8" points="198.46 153.89 206.91 157.22 223.18 154.9 225.94 154.01 225.78 152.28 209.06 153.62 201.07 151.26 198.46 153.89"/><polygon id="_Path_106" data-name="&lt;Path&gt;" class="cls-8" points="207.49 147.52 215.25 149.39 232.2 148.57 234.77 148.73 235.88 147.75 217.36 147.44 211.4 146.75 207.49 147.52"/><polygon id="_Path_107" data-name="&lt;Path&gt;" class="cls-7" points="231.56 151.17 231.72 148.51 235.88 147.75 236.89 150.37 231.56 151.17"/><polygon id="_Path_108" data-name="&lt;Path&gt;" class="cls-7" points="224.68 157.44 223.18 154.9 225.78 152.28 228.65 154 224.68 157.44"/><path id="_Path_109" data-name="&lt;Path&gt;" class="cls-4" d="M193,192.82l9.94,3.74,14.7-2.64s-14,6-14.3,6.06-12.75-6.27-12.75-6.27Z"/><polygon id="_Path_110" data-name="&lt;Path&gt;" class="cls-8" points="189.14 182.05 200.32 187.45 214.44 183.11 215.12 185.63 214.46 187.61 200.77 191.65 188.88 186.49 189.14 182.05"/><polygon id="_Path_111" data-name="&lt;Path&gt;" class="cls-7" points="217.61 182.18 214.44 183.11 214.18 187.54 218.51 188.54 217.61 182.18"/><polygon id="_Path_112" data-name="&lt;Path&gt;" class="cls-4" points="195.53 201.49 207.38 204.51 220.68 202.29 217.33 204.68 208.38 207.29 193.17 202.72 195.53 201.49"/><polygon id="_Path_113" data-name="&lt;Path&gt;" class="cls-8" points="190.54 193.71 203.05 199.3 215.25 194.73 216.62 196.43 215.85 197.94 204.65 202.79 191.14 196.92 190.54 193.71"/><polygon id="_Path_114" data-name="&lt;Path&gt;" class="cls-4" points="200.26 208.26 212.97 211.52 224.38 209.81 224.91 211.31 213.46 214.05 198.14 210.19 200.26 208.26"/><polygon id="_Path_115" data-name="&lt;Path&gt;" class="cls-7" points="219.6 198.72 215.85 197.94 215.25 194.73 218.49 193.53 219.6 198.72"/><polygon id="_Path_116" data-name="&lt;Path&gt;" class="cls-8" points="193.17 202.72 207.96 206.71 217.88 203.74 219.74 204.96 219.25 206.77 208.94 209.83 194.53 205.75 193.17 202.72"/><path id="_Path_117" data-name="&lt;Path&gt;" class="cls-7" d="M223.1,207c-.18-.07-3.85-.23-3.85-.23l-1.37-3,2.8-1.45Z"/><path id="_Path_118" data-name="&lt;Path&gt;" class="cls-8" d="M198.14,210.19l14.73,2.88,10-1.86a11.34,11.34,0,0,1,1.89.89,11.61,11.61,0,0,1,0,1.23l-11.07,1.79-13.64-2.81Z"/><path id="_Path_119" data-name="&lt;Path&gt;" class="cls-7" d="M229.07,213c-.2.1-4.28.36-4.28.36l-1.94-2.12,2.12-1.93Z"/><ellipse id="_Path_120" data-name="&lt;Path&gt;" class="cls-9" cx="235.36" cy="182.12" rx="32.74" ry="18.53" transform="translate(39.54 406.21) rotate(-86.58)"/><ellipse id="_Path_121" data-name="&lt;Path&gt;" class="cls-10" cx="235.36" cy="182.12" rx="28.29" ry="16.01" transform="translate(39.54 406.21) rotate(-86.58)"/><ellipse id="_Path_122" data-name="&lt;Path&gt;" class="cls-16" cx="235.36" cy="182.12" rx="16.75" ry="9.11" transform="translate(39.54 406.21) rotate(-86.58)"/><path id="_Path_123" data-name="&lt;Path&gt;" class="cls-17" d="M236.26,167.07a5,5,0,0,0-2.74.68c3.07,2.24,5,8,4.64,14.53s-3,12-6.34,13.89a4.91,4.91,0,0,0,2.64,1c4.52.27,8.59-6.25,9.08-14.56S240.77,167.34,236.26,167.07Z"/><g id="_Group_8" data-name="&lt;Group&gt;"><path id="_Path_124" data-name="&lt;Path&gt;" class="cls-13" d="M228.47,191.14s1.61-2.67,3.45-1.15,3,7.27,3,7.27S229.8,197.06,228.47,191.14Z"/><path id="_Path_125" data-name="&lt;Path&gt;" class="cls-13" d="M238.08,195.84a7.74,7.74,0,0,1,.14-7.82c2.48-4.1,4.85-1.7,4.85-1.7S242,193.32,238.08,195.84Z"/><path id="_Path_126" data-name="&lt;Path&gt;" class="cls-13" d="M243.59,181.37s.16-8-2.85-11.11c0,0-2.68,4.93-1.34,8.07A4.64,4.64,0,0,0,243.59,181.37Z"/><path id="_Path_127" data-name="&lt;Path&gt;" class="cls-13" d="M238,167.52s-3.71-2-7.39,2.42c0,0,1.42,3.69,3.45,3S238,167.52,238,167.52Z"/><path id="_Path_128" data-name="&lt;Path&gt;" class="cls-13" d="M229,173.69a21.45,21.45,0,0,1,.47,7.3,14.93,14.93,0,0,1-1.73,5.13A22.62,22.62,0,0,1,229,173.69Z"/><polygon id="_Path_129" data-name="&lt;Path&gt;" class="cls-13" points="235.44 186.1 234.09 186.06 234.21 178.37 235.57 178.41 235.44 186.1"/><path id="_Path_130" data-name="&lt;Path&gt;" class="cls-13" d="M236.07,182.27c0,2.13-.93,3.82-2,3.79s-1.89-1.78-1.86-3.91.92-3.82,2-3.78S236.1,180.15,236.07,182.27Z"/><path id="_Path_131" data-name="&lt;Path&gt;" class="cls-14" d="M237.42,182.31c0,2.13-.92,3.82-2,3.79s-1.89-1.78-1.85-3.9.92-3.82,2-3.79S237.46,180.19,237.42,182.31Z"/><g id="_Group_9" data-name="&lt;Group&gt;"><polygon id="_Path_132" data-name="&lt;Path&gt;" class="cls-13" points="238.15 179.85 237.79 179.84 237.87 177.83 238.22 177.85 238.15 179.85"/><path id="_Path_133" data-name="&lt;Path&gt;" class="cls-13" d="M238.33,178.86c0,.55-.26,1-.54,1s-.48-.48-.46-1,.26-1,.54-1S238.35,178.31,238.33,178.86Z"/><path id="_Path_134" data-name="&lt;Path&gt;" class="cls-14" d="M238.68,178.88c0,.55-.26,1-.53,1s-.49-.47-.47-1,.27-1,.54-1S238.71,178.33,238.68,178.88Z"/></g><g id="_Group_10" data-name="&lt;Group&gt;"><polygon id="_Path_135" data-name="&lt;Path&gt;" class="cls-13" points="236.65 188.86 236.29 188.84 236.37 186.83 236.72 186.85 236.65 188.86"/><path id="_Path_136" data-name="&lt;Path&gt;" class="cls-13" d="M236.83,187.86c0,.56-.26,1-.54,1s-.48-.48-.46-1,.26-1,.54-1S236.85,187.31,236.83,187.86Z"/><path id="_Path_137" data-name="&lt;Path&gt;" class="cls-14" d="M237.18,187.88c0,.55-.26,1-.53,1s-.49-.48-.47-1,.26-1,.54-1S237.2,187.33,237.18,187.88Z"/></g><g id="_Group_11" data-name="&lt;Group&gt;"><polygon id="_Path_138" data-name="&lt;Path&gt;" class="cls-13" points="231.27 186.22 230.92 186.2 231 184.2 231.35 184.22 231.27 186.22"/><path id="_Path_139" data-name="&lt;Path&gt;" class="cls-13" d="M231.46,185.23c0,.55-.26,1-.54,1s-.48-.47-.46-1,.26-1,.53-1S231.48,184.67,231.46,185.23Z"/><path id="_Path_140" data-name="&lt;Path&gt;" class="cls-14" d="M231.81,185.25c0,.55-.26,1-.54,1s-.48-.47-.46-1,.26-1,.54-1S231.83,184.69,231.81,185.25Z"/></g><g id="_Group_12" data-name="&lt;Group&gt;"><polygon id="_Path_141" data-name="&lt;Path&gt;" class="cls-13" points="232.77 177.22 232.42 177.2 232.5 175.2 232.85 175.22 232.77 177.22"/><path id="_Path_142" data-name="&lt;Path&gt;" class="cls-13" d="M233,176.23c0,.55-.26,1-.54,1s-.48-.47-.46-1,.26-1,.54-1S233,175.67,233,176.23Z"/><path id="_Path_143" data-name="&lt;Path&gt;" class="cls-14" d="M233.31,176.25c0,.55-.26,1-.54,1s-.48-.47-.46-1,.26-1,.54-1S233.33,175.69,233.31,176.25Z"/></g></g></g><path id="_Path_144" data-name="&lt;Path&gt;" class="cls-18" d="M192.74,191.48a68.54,68.54,0,0,0,32.65-6.11,59.78,59.78,0,0,0,19.53-15c2.1-2.42,4.23-4.81,6.12-7.4l.32-.45-.39-.09A33.44,33.44,0,0,0,249.4,159l.79-.46L248.85,156l-1.73-.6a18.65,18.65,0,0,0-2.42-2.64l.46-.76-2.84-2.25-5.88-.51-.57-1.47-18.51-.31-6-.69h0l-3.94.77-.09,1.46a16.06,16.06,0,0,0-4.28,2.87l-2-.59-2.61,2.63,1.15,1.93a33.39,33.39,0,0,0-2.56,4.33l-2.3-.13-1.55,3.13,0,0,0,.06,2,1.27c-.52,1.43-1,2.93-1.39,4.49h0l-3.05.92-.84,3.88,2.64,1.73c-.17,1.32-.3,2.67-.38,4,0,.58-.06,1.15-.08,1.72l-3,.77-.26,4.44,3.41,1.48C192.4,189.17,192.56,190.33,192.74,191.48Z"/><path id="_Path_145" data-name="&lt;Path&gt;" class="cls-15" d="M135,170l2.12,11.16,10.42,3.61h31.07a13.75,13.75,0,0,0,8.67-3.08l15.33-12.47-15.85-5.15Z"/><g id="_Group_13" data-name="&lt;Group&gt;"><polygon id="_Path_146" data-name="&lt;Path&gt;" class="cls-4" points="71.23 154.51 68 153.48 69.16 156.67 71.23 154.51"/><polygon id="_Path_147" data-name="&lt;Path&gt;" class="cls-4" points="64.33 148.22 57.81 147.81 61.39 150.22 64.33 148.22"/><path id="_Path_148" data-name="&lt;Path&gt;" class="cls-4" d="M75.66,192a22.21,22.21,0,0,1,.69,2.44l-2.32.49Z"/><path id="_Path_149" data-name="&lt;Path&gt;" class="cls-4" d="M73.07,200.13c.4.3.64,2.61.64,2.61l-3,.18Z"/><polygon id="_Path_150" data-name="&lt;Path&gt;" class="cls-4" points="69.76 207 69.74 209.38 66.01 209.25 69.76 207"/><path id="_Path_151" data-name="&lt;Path&gt;" class="cls-4" d="M64.67,212.23c.35.41-.66,2.61-.66,2.61l-5.26,0Z"/><path id="_Path_152" data-name="&lt;Path&gt;" class="cls-4" d="M30.63,216.81l28.05-.09-3.52-2-25.57-.45,0,1C29.54,215.78,30.11,216.8,30.63,216.81Z"/><polygon id="_Path_153" data-name="&lt;Path&gt;" class="cls-5" points="13.72 181.85 10.16 182.87 10 187.46 14.66 188.39 13.72 181.85"/><polygon id="_Path_154" data-name="&lt;Path&gt;" class="cls-5" points="14.42 176.6 10.77 174.32 11.53 170.3 15.58 168.99 14.42 176.6"/><polygon id="_Path_155" data-name="&lt;Path&gt;" class="cls-5" points="16.78 165.09 13.89 163.27 15.42 160 19.8 160.15 16.78 165.09"/><polygon id="_Path_156" data-name="&lt;Path&gt;" class="cls-5" points="20.72 156.16 19.1 153.58 21.73 150.81 24.73 152.52 20.72 156.16"/><polygon id="_Path_157" data-name="&lt;Path&gt;" class="cls-5" points="28.11 149.54 28.21 146.79 32.27 145.9 33.49 148.58 28.11 149.54"/><path id="_Path_158" data-name="&lt;Path&gt;" class="cls-5" d="M26.63,213.35c-.21.11-4.42.47-4.42.47l-2.05-2.14,2.14-2Z"/><path id="_Path_159" data-name="&lt;Path&gt;" class="cls-5" d="M20.31,207.33c-.19-.07-4-.14-4-.14l-1.49-3.1,2.86-1.56Z"/><polygon id="_Path_160" data-name="&lt;Path&gt;" class="cls-5" points="16.48 198.87 12.6 198.16 11.9 194.87 15.21 193.55 16.48 198.87"/><ellipse id="_Path_161" data-name="&lt;Path&gt;" class="cls-6" cx="32.38" cy="180.9" rx="33.79" ry="19.16" transform="translate(-149.57 206.78) rotate(-87.95)"/><rect id="_Path_162" data-name="&lt;Path&gt;" class="cls-6" x="11.36" y="168.57" width="67.59" height="25.57" transform="translate(-137.68 220.07) rotate(-87.97)"/><polygon id="_Path_163" data-name="&lt;Path&gt;" class="cls-4" points="13.22 182.05 22.25 185.9 39.44 182.3 36.01 183.84 22.34 188.66 10.46 182.88 13.22 182.05"/><polygon id="_Path_164" data-name="&lt;Path&gt;" class="cls-7" points="42.34 165.77 39.44 164.06 40.97 160.9 45.35 161.06 42.34 165.77"/><polygon id="_Path_165" data-name="&lt;Path&gt;" class="cls-7" points="62.02 149.48 64.33 148.22 67.31 150.47 66.17 152.49 62.02 149.48"/><path id="_Path_166" data-name="&lt;Path&gt;" class="cls-7" d="M68.83,154.71a9.54,9.54,0,0,1,2.4-.2l1.44,2.57-1.57,1Z"/><polygon id="_Path_167" data-name="&lt;Path&gt;" class="cls-7" points="72.53 160.92 75.11 161.42 75.94 164.29 74.16 164.94 72.53 160.92"/><polygon id="_Path_168" data-name="&lt;Path&gt;" class="cls-7" points="74.77 167.43 76.95 167.79 77.5 170.72 75.7 171.25 74.77 167.43"/><polygon id="_Path_169" data-name="&lt;Path&gt;" class="cls-7" points="76.29 174.19 78.25 174.89 78.44 178.4 76.18 178.31 76.29 174.19"/><polygon id="_Path_170" data-name="&lt;Path&gt;" class="cls-7" points="76.26 181.14 78.28 182.01 78.17 185.28 75.94 186.39 76.26 181.14"/><path id="_Path_171" data-name="&lt;Path&gt;" class="cls-7" d="M75.86,189.17c0,.06,1.45,1.81,1.45,1.81l-1,3.51L74,194.4Z"/><polygon id="_Path_172" data-name="&lt;Path&gt;" class="cls-7" points="73.92 196.83 75.03 199.86 73.7 202.74 71.59 202.37 73.92 196.83"/><polygon id="_Path_173" data-name="&lt;Path&gt;" class="cls-7" points="70.93 203.96 71.43 206.73 69.74 209.25 68.25 208.22 70.93 203.96"/><polygon id="_Path_174" data-name="&lt;Path&gt;" class="cls-7" points="66.28 210.1 66.17 213.31 63.9 214.84 62.7 213.08 66.28 210.1"/><path id="_Path_175" data-name="&lt;Path&gt;" class="cls-7" d="M60.42,214.13c0,.17-1.74,2.68-1.74,2.68l-3.63-.13.07-1.92Z"/><polygon id="_Path_176" data-name="&lt;Path&gt;" class="cls-4" points="14.66 169.28 23.69 174.4 41.14 169.43 22.9 177.81 11.53 170.3 14.66 169.28"/><polygon id="_Path_177" data-name="&lt;Path&gt;" class="cls-8" points="11.53 170.3 23.07 176.9 37.1 170.75 38.27 172.85 36.33 174.77 23.02 180.76 10.77 174.32 11.53 170.3"/><polygon id="_Path_178" data-name="&lt;Path&gt;" class="cls-4" points="15.54 160 17.67 160.08 24.88 163.54 40.98 160.53 24.23 166.78 15.54 160"/><polygon id="_Path_179" data-name="&lt;Path&gt;" class="cls-7" points="39.98 177.04 36.33 174.77 37.1 170.75 41.14 169.43 39.98 177.04"/><polygon id="_Path_180" data-name="&lt;Path&gt;" class="cls-4" points="19.1 153.58 27.94 155.96 44.67 154.03 46.05 156.24 27.48 159.73 20.43 155.69 19.1 153.58"/><polygon id="_Path_181" data-name="&lt;Path&gt;" class="cls-8" points="13.88 163.35 23.8 169.28 39.44 164.06 41.41 161.8 40.97 160.9 24.27 165.41 15.41 160.11 13.88 163.35"/><polygon id="_Path_182" data-name="&lt;Path&gt;" class="cls-4" points="28.16 148.27 34.84 150.41 53.72 149.99 54.87 147.91 53.83 147.24 37.74 147.53 28.21 146.79 28.16 148.27"/><polygon id="_Path_183" data-name="&lt;Path&gt;" class="cls-8" points="19.1 153.58 27.91 156.82 44.67 154.03 47.5 153.04 47.3 151.25 30.05 153.05 21.73 150.81 19.1 153.58"/><polygon id="_Path_184" data-name="&lt;Path&gt;" class="cls-8" points="28.27 146.79 36.34 148.53 53.84 147.28 56.5 147.37 57.62 146.34 38.48 146.47 32.3 145.91 28.27 146.79"/><polygon id="_Path_185" data-name="&lt;Path&gt;" class="cls-7" points="53.24 149.97 53.34 147.22 57.62 146.34 58.73 149.02 53.24 149.97"/><polygon id="_Path_186" data-name="&lt;Path&gt;" class="cls-7" points="46.29 156.61 44.67 154.03 47.3 151.25 50.3 152.97 46.29 156.61"/><path id="_Path_187" data-name="&lt;Path&gt;" class="cls-4" d="M14.37,193.88l10.36,3.62,15.13-3.08S25.51,201,25.22,201s-13.32-6.15-13.32-6.15Z"/><polygon id="_Path_188" data-name="&lt;Path&gt;" class="cls-8" points="10.16 182.87 21.85 188.16 36.34 183.34 37.09 185.93 36.47 187.99 22.42 192.49 10 187.46 10.16 182.87"/><polygon id="_Path_189" data-name="&lt;Path&gt;" class="cls-7" points="39.59 182.31 36.34 183.34 36.17 187.92 40.68 188.85 39.59 182.31"/><polygon id="_Path_190" data-name="&lt;Path&gt;" class="cls-4" points="17.25 202.77 29.57 205.59 43.25 202.98 39.85 205.53 30.67 208.44 14.83 204.09 17.25 202.77"/><polygon id="_Path_191" data-name="&lt;Path&gt;" class="cls-8" points="11.9 194.87 24.96 200.32 37.46 195.31 38.91 197.03 38.16 198.61 26.7 203.88 12.6 198.16 11.9 194.87"/><polygon id="_Path_192" data-name="&lt;Path&gt;" class="cls-4" points="22.3 209.64 35.51 212.69 47.27 210.65 47.85 212.18 36.08 215.29 20.16 211.68 22.3 209.64"/><polygon id="_Path_193" data-name="&lt;Path&gt;" class="cls-7" points="42.05 199.32 38.16 198.61 37.46 195.31 40.77 194 42.05 199.32"/><polygon id="_Path_194" data-name="&lt;Path&gt;" class="cls-8" points="14.83 204.09 30.22 207.85 40.4 204.54 42.35 205.76 41.89 207.63 31.31 211.05 16.32 207.19 14.83 204.09"/><path id="_Path_195" data-name="&lt;Path&gt;" class="cls-7" d="M45.88,207.78c-.2-.07-4-.15-4-.15l-1.49-3.09L43.25,203Z"/><path id="_Path_196" data-name="&lt;Path&gt;" class="cls-8" d="M20.16,211.68l15.29,2.61,10.27-2.16a11.78,11.78,0,0,1,2,.87,11.34,11.34,0,0,1,.09,1.27l-11.4,2.12-14.17-2.57Z"/><path id="_Path_197" data-name="&lt;Path&gt;" class="cls-7" d="M52.19,213.79c-.2.11-4.41.48-4.41.48l-2.06-2.14,2.14-2Z"/><ellipse id="_Path_198" data-name="&lt;Path&gt;" class="cls-9" cx="57.93" cy="181.81" rx="33.79" ry="19.16" transform="translate(-125.84 233.19) rotate(-87.95)"/><ellipse id="_Path_199" data-name="&lt;Path&gt;" class="cls-10" cx="57.93" cy="181.81" rx="29.2" ry="16.55" transform="translate(-125.84 233.19) rotate(-87.95)"/><path id="_Path_200" data-name="&lt;Path&gt;" class="cls-11" d="M67.34,182.14c-.34,9.54-4.83,17.12-10,16.94s-9.13-8.07-8.79-17.6,4.83-17.13,10-16.94S67.68,172.6,67.34,182.14Z"/><path id="_Path_201" data-name="&lt;Path&gt;" class="cls-12" d="M58.49,166.26a5.16,5.16,0,0,0-2.82.77c3.23,2.23,5.4,8.09,5.16,14.88S58,194.39,54.62,196.39a5.09,5.09,0,0,0,2.76,1c4.67.17,8.71-6.66,9-15.24S63.16,166.43,58.49,166.26Z"/><g id="_Group_14" data-name="&lt;Group&gt;"><path id="_Path_202" data-name="&lt;Path&gt;" class="cls-13" d="M66.42,180.83s0-8.22-3.22-11.39c0,0-2.65,5.15-1.19,8.36A4.79,4.79,0,0,0,66.42,180.83Z"/><g id="_Group_15" data-name="&lt;Group&gt;"><polygon id="_Path_203" data-name="&lt;Path&gt;" class="cls-13" points="60.76 179.4 60.39 179.39 60.42 177.32 60.78 177.33 60.76 179.4"/><path id="_Path_204" data-name="&lt;Path&gt;" class="cls-13" d="M60.92,178.37c0,.58-.24,1-.53,1s-.51-.48-.5-1,.24-1,.53-1S60.93,177.8,60.92,178.37Z"/><path id="_Path_205" data-name="&lt;Path&gt;" class="cls-14" d="M61.29,178.38c0,.58-.25,1-.53,1s-.52-.47-.51-1.05.25-1,.53-1S61.29,177.81,61.29,178.38Z"/></g><g id="_Group_16" data-name="&lt;Group&gt;"><polygon id="_Path_206" data-name="&lt;Path&gt;" class="cls-13" points="55.14 176.82 54.77 176.81 54.8 174.74 55.17 174.75 55.14 176.82"/><path id="_Path_207" data-name="&lt;Path&gt;" class="cls-13" d="M55.3,175.79c0,.57-.24,1-.53,1s-.51-.48-.5-1.05.24-1,.53-1S55.31,175.22,55.3,175.79Z"/><path id="_Path_208" data-name="&lt;Path&gt;" class="cls-14" d="M55.67,175.8c0,.57-.25,1-.53,1s-.51-.48-.51-1,.25-1,.54-1S55.68,175.23,55.67,175.8Z"/></g></g><path id="_Path_209" data-name="&lt;Path&gt;" class="cls-11" d="M63.79,182c-.21,5.94-3,10.66-6.24,10.55s-5.69-5-5.48-11,3-10.66,6.25-10.55S64,176.08,63.79,182Z"/></g><path id="_Path_210" data-name="&lt;Path&gt;" class="cls-19" d="M143.5,132.21l62.28,1.73s-26.61,10.93-26.61,35.93H146.89Z"/><rect id="_Rectangle_3" data-name="&lt;Rectangle&gt;" class="cls-2" x="70.47" y="70.34" width="28.49" height="17.84" rx="7.77" ry="7.77"/><path id="_Path_211" data-name="&lt;Path&gt;" class="cls-20" d="M96,79V75.52a3.41,3.41,0,0,0-3.39-3.4h-16a3.41,3.41,0,0,0-3.4,3.4V79Z"/><rect id="_Rectangle_4" data-name="&lt;Rectangle&gt;" class="cls-21" x="171.32" y="117.77" width="83.92" height="5.93" rx="2.82" ry="2.82"/><rect id="_Rectangle_5" data-name="&lt;Rectangle&gt;" class="cls-11" x="190.96" y="107.82" width="3.2" height="23.73" transform="translate(12.75 -18.41) rotate(5.66)"/><path id="_Path_212" data-name="&lt;Path&gt;" class="cls-22" d="M170,157.22a12.87,12.87,0,0,1-8.66.28c-1.61,1.39-8.15,7.81-11.71,6.53s-5.39.41-5.45,2.92l0,2.51c5,3.56,29.25,1,29.25,1S174.12,159.46,170,157.22Z"/><rect id="_Rectangle_6" data-name="&lt;Rectangle&gt;" class="cls-11" x="208.16" y="107.82" width="3.2" height="23.73" transform="matrix(1, 0.1, -0.1, 1, 12.83, -20.11)"/><path id="_Path_213" data-name="&lt;Path&gt;" class="cls-2" d="M149.86,149.77s15.3,2.36,24.75-7S184.75,132,184.75,132l-36.34.54Z"/><path id="_Path_214" data-name="&lt;Path&gt;" class="cls-11" d="M190.49,96.94l-1.59,13.42a3.81,3.81,0,0,0,3.78,4.25h20.26a3.79,3.79,0,0,0,3.77-3.36l1.69-14.31s-1.06-6-13.29-6.15C193.07,90.66,190.49,96.94,190.49,96.94Z"/><path id="_Path_215" data-name="&lt;Path&gt;" class="cls-21" d="M185.27,96.94l-1.58,13.42a3.8,3.8,0,0,0,3.77,4.25h20.26a3.81,3.81,0,0,0,3.78-3.36l1.69-14.31s-1.07-6-13.3-6.15C187.85,90.66,185.27,96.94,185.27,96.94Z"/><rect id="_Rectangle_7" data-name="&lt;Rectangle&gt;" class="cls-21" x="225.95" y="120.73" width="3.2" height="14.83" transform="translate(0.23 -0.4) rotate(0.1)"/><rect id="_Rectangle_8" data-name="&lt;Rectangle&gt;" class="cls-21" x="175.78" y="120.73" width="3.2" height="14.83" transform="translate(0.23 -0.32) rotate(0.1)"/><rect id="_Rectangle_9" data-name="&lt;Rectangle&gt;" class="cls-2" x="146.89" y="125.08" width="70.31" height="15" rx="7.13" ry="7.13"/><path id="_Path_216" data-name="&lt;Path&gt;" class="cls-23" d="M210.06,127.52a1.22,1.22,0,0,0,.11-2.43H153.93a1.22,1.22,0,0,0,.12,2.43Z"/><path id="_Path_217" data-name="&lt;Path&gt;" class="cls-24" d="M173.44,122.88c-1.45.4-2.88,22.74-.51,40.35l-19.58-.53,1.05-37.62Z"/><polygon id="_Path_218" data-name="&lt;Path&gt;" class="cls-2" points="126.11 88.11 137.82 74.87 166.31 74.87 166.31 80.06 140.11 81.46 121 110.07 113.79 105.7 125.21 88.19 126.11 88.11"/><path id="_Path_219" data-name="&lt;Path&gt;" class="cls-25" d="M169,110.73s-33.49-2.12-40,6.12-5.1,29-5.1,29h16.12s18.83-27,27.9-29A148.24,148.24,0,0,0,185.1,112Z"/><path id="_Path_220" data-name="&lt;Path&gt;" class="cls-3" d="M184.68,57.43a.56.56,0,0,0-.61.49c-1.26,8.24-15.08,12.22-16.81-1.66,0-.24-.23-.49-.46-.43-9.22,2.44-10.79,5.87-10.75,7.9.16,1.67-3.87,39,4.77,52.46,1.27.15,31.64,1.65,36.13,2.1,6.65-24.51,3.48-48.39,3-54C198.56,60.12,190.57,58.29,184.68,57.43Z"/><path id="_Path_221" data-name="&lt;Path&gt;" class="cls-26" d="M174.79,65.36c6.85-.14,14.52-2.24,19.81-6.75a24.23,24.23,0,0,0,6.55-9.19,16,16,0,0,0,.58-1.63c-2.06-2-5.51-3.48-11-4.15-16.08-2-23,6.79-25.76,12.71-4.1,1.28-6.38,2.77-7.62,4.17A32.69,32.69,0,0,0,174.79,65.36Z"/><path id="_Path_222" data-name="&lt;Path&gt;" class="cls-27" d="M201,91.67a162.48,162.48,0,0,0-.27-18.88,36.47,36.47,0,0,1-17.3,8.59c-8.41,1.44-17.49-.33-25.24-3.73-.94-.41-1.86-.84-2.76-1.3-.16,4.66-.22,10.17.05,15.68C170.41,96,185.92,95.42,201,91.67Z"/><g id="_Group_17" data-name="&lt;Group&gt;"><path id="_Path_223" data-name="&lt;Path&gt;" class="cls-24" d="M144.65,166,132,162.72c2.62-10.61,12.23-45.16,30.71-48.11,15-2.4,34.34.13,35.18,0l-.54,5.24a7.09,7.09,0,0,1-6.52,6.36c-6.2.47-14.2,1.2-25,2.93-5.55.89-14.34,19.26-18.73,35.43A2,2,0,0,1,144.65,166Z"/></g><g id="_Group_18" data-name="&lt;Group&gt;" class="cls-28"><path id="_Path_224" data-name="&lt;Path&gt;" class="cls-29" d="M186.35,117.37a24.37,24.37,0,0,0,5.8-2.33,10.34,10.34,0,0,0-1.49-.61c-.58-.19-1.17-.35-1.76-.48-7.16-.46-17.42-.74-26.22.66a20.18,20.18,0,0,0-10.43,5.47A87.5,87.5,0,0,0,186.35,117.37Z"/></g><path id="_Path_225" data-name="&lt;Path&gt;" class="cls-30" d="M223.05,134.67l4.73,4.66a3.25,3.25,0,0,0,2.26.93h19a2.05,2.05,0,0,0,1.89-2.85l-2.73-6.49Z"/><path id="_Path_226" data-name="&lt;Path&gt;" class="cls-31" d="M175.68,170.57s1-41.83,41.53-41.83h30.18l1.17,2.91s-40.26-1.85-44,33.54a6.06,6.06,0,0,1-6,5.42Z"/><path id="_Path_227" data-name="&lt;Path&gt;" class="cls-32" d="M248,129.41s-.56-1.54-1.84-1.54c-8,0-41.65,3.14-44.93,34.27a6.25,6.25,0,0,1-6,5.64l-19.26.08c-.18,1.64-.21,2.66-.21,2.66l22.86.06a6,6,0,0,0,6-5.41c3.73-35.38,44-33.52,44-33.52Z"/><rect id="_Rectangle_10" data-name="&lt;Rectangle&gt;" class="cls-33" x="148.41" y="169.04" width="39.83" height="4.94" rx="2.35" ry="2.35"/><polygon id="_Path_228" data-name="&lt;Path&gt;" class="cls-11" points="156.84 146.54 156.51 170.62 58.73 180.33 42.94 145.17 156.84 146.54"/><polygon id="_Path_229" data-name="&lt;Path&gt;" class="cls-11" points="103.64 88.18 92.7 114.61 119.67 114.61 121.25 98.91 126.19 88.18 103.64 88.18"/><path id="_Path_230" data-name="&lt;Path&gt;" class="cls-34" d="M118.9,103.65H100.33c-5,0-8.66-3.27-7.37-6.6l4.12-10.69c.89-2.3,3.92-3.9,7.38-3.9H123c5,0,8.66,3.27,7.38,6.6l-4.13,10.68C125.39,102.05,122.36,103.65,118.9,103.65Z"/><path id="_Path_231" data-name="&lt;Path&gt;" class="cls-35" d="M127.7,83.57a27.52,27.52,0,0,1-6.6,9.55c-3.63,3.4-8.35,4.59-13.17,5.14a61.92,61.92,0,0,1-15.21-.15c-.24,2.93,3.14,5.54,7.61,5.54H118.9c3.46,0,6.49-1.6,7.38-3.91l4.13-10.68C131.24,86.91,130,84.8,127.7,83.57Z"/><polygon id="_Path_232" data-name="&lt;Path&gt;" class="cls-36" points="23.32 125.95 26.09 144.01 91.67 153.08 132.76 146.54 128.57 111.21 23.32 125.95"/><polygon id="_Path_233" data-name="&lt;Path&gt;" class="cls-32" points="29.38 125.44 23.06 125.67 26.09 144.01 29.38 144.47 29.38 125.44"/><path id="_Path_234" data-name="&lt;Path&gt;" class="cls-11" d="M110.87,120.91c1.12-.92,14.17,35,14.17,35L78.26,173.49l3.47-48.17Z"/><path id="_Path_235" data-name="&lt;Path&gt;" class="cls-34" d="M139.42,106.19l-88.3,0c-19.3,0-26.19,10.45-28,17.1-.72,2.7.55,4.84,3.35,4.83l81.21.46a11.06,11.06,0,0,0,9.58-5.51,51.51,51.51,0,0,1,4-5.75l3.66,29.18h31.93C156.84,111.85,144.75,106.75,139.42,106.19Z"/><path id="_Path_236" data-name="&lt;Path&gt;" class="cls-37" d="M45.76,122.43A22.65,22.65,0,0,1,50.87,111a1.69,1.69,0,0,0-1.45-2.82c-6.31.76-16.7,3.5-21.35,13.2a2.63,2.63,0,0,0,2.38,3.74H42.66A3.15,3.15,0,0,0,45.76,122.43Z"/><path id="_Path_237" data-name="&lt;Path&gt;" class="cls-29" d="M45.48,121.83c.34-2.56,1.51-7.72,5.55-11.08a.62.62,0,0,0-.41-1.1c-4.59.24-15.74,1.87-19.69,11.86a1.37,1.37,0,0,0,1.27,1.87H43.73A1.77,1.77,0,0,0,45.48,121.83Z"/><g id="_Group_19" data-name="&lt;Group&gt;"><path id="_Path_238" data-name="&lt;Path&gt;" class="cls-21" d="M70.27,103.14c-19.3,0-25.15,11.64-26.91,19-.72,3-.63,6,2.17,6l37.93,0c2.26,0,3.05-.79,3.35-3.58a12.79,12.79,0,0,1,.25-2.36c1.54-6.45,4.08-13.6,18-16h0c0-1.26-.49-3.09-1.75-3.09Z"/></g><path id="_Path_239" data-name="&lt;Path&gt;" class="cls-38" d="M103.48,103.12c0,.19.27,1-.48,1.17-13.88,2.38-16.94,10-18.48,16.41a13.74,13.74,0,0,0-.26,2.36c-.29,2.78-1.08,3.61-3.34,3.58l-36,0a3.76,3.76,0,0,1-1.67-.39,4.17,4.17,0,0,0,3.69,2.41l35.84-.53c2.26,0,3.68-.3,4-3.08A13.8,13.8,0,0,1,87,122.7c1.54-6.45,3.44-13.76,18-16.55C105,104.88,104.55,103.39,103.48,103.12Z"/><g id="_Group_20" data-name="&lt;Group&gt;"><path id="_Path_240" data-name="&lt;Path&gt;" class="cls-11" d="M58.6,108.13a10.06,10.06,0,0,0-7.14,3.6,24.85,24.85,0,0,0-4.37,9.07c-.57,2.42.66,4.52,2.9,4.52l28.81,0c1.8,0,2.44-.64,2.67-2.86a10.22,10.22,0,0,1,.21-1.89c.71-3,1.83-6.63,4.81-9.53a1.41,1.41,0,0,0-1-2.42Z"/></g><path id="_Path_241" data-name="&lt;Path&gt;" class="cls-21" d="M66.87,105.7h-3.8c-9.12,3.77-12.55,11.37-13.83,16.74a5.23,5.23,0,0,0,.79,4.2h3.8a5.15,5.15,0,0,1-.79-4.2C54.32,117.07,57.75,109.47,66.87,105.7Z"/><path id="_Path_242" data-name="&lt;Path&gt;" class="cls-21" d="M74.46,105.7h-3.8c-9.12,3.77-12.55,11.37-13.83,16.74a5.23,5.23,0,0,0,.79,4.2h3.8a5.15,5.15,0,0,1-.79-4.2C61.91,117.07,65.34,109.47,74.46,105.7Z"/><path id="_Path_243" data-name="&lt;Path&gt;" class="cls-21" d="M82.05,105.7h-3.8c-9.12,3.77-12.55,11.37-13.83,16.74a5.23,5.23,0,0,0,.79,4.2H69a5.15,5.15,0,0,1-.79-4.2C69.5,117.07,72.93,109.47,82.05,105.7Z"/><path id="_Path_244" data-name="&lt;Path&gt;" class="cls-21" d="M89.64,105.7h-3.8c-9.12,3.77-12.55,11.37-13.83,16.74a5.23,5.23,0,0,0,.79,4.2h3.8a5.15,5.15,0,0,1-.79-4.2C77.09,117.07,80.51,109.47,89.64,105.7Z"/><path id="_Path_245" data-name="&lt;Path&gt;" class="cls-36" d="M139.42,106.19c-7.71-.12-18.17,11.17-18.17,11.17l.87,29.18h34.72C156.84,111.85,144.78,106.28,139.42,106.19Z"/><path id="_Path_246" data-name="&lt;Path&gt;" class="cls-37" d="M88.53,125.08s1.11-14.23,15.44-16.75a38.59,38.59,0,0,1,14,.46S116.53,128.48,88.53,125.08Z"/><path id="_Path_247" data-name="&lt;Path&gt;" class="cls-29" d="M91.48,123.4S92.36,112,103.83,110a30.8,30.8,0,0,1,11.21.36S113.88,126.12,91.48,123.4Z"/><rect id="_Rectangle_11" data-name="&lt;Rectangle&gt;" class="cls-33" x="34.53" y="95.94" width="104.51" height="5.93" rx="2.82" ry="2.82"/><polygon id="_Path_248" data-name="&lt;Path&gt;" class="cls-11" points="46.95 134.87 44.93 156.26 80.12 155.12 89.85 134.87 46.95 134.87"/><polygon id="_Path_249" data-name="&lt;Path&gt;" class="cls-2" points="140.61 72.29 138.58 83.73 147.68 82.81 148.41 72.51 140.61 72.29"/><polygon id="_Path_250" data-name="&lt;Path&gt;" class="cls-15" points="51.56 155.22 49.34 166.26 76.18 166.5 84.61 151.77 51.56 155.22"/><rect id="_Rectangle_12" data-name="&lt;Rectangle&gt;" class="cls-21" x="46.95" y="163.23" width="28.04" height="6.07"/><polygon id="_Path_251" data-name="&lt;Path&gt;" class="cls-11" points="46.95 169.24 71.87 189.87 97.17 189.87 74.99 168.96 46.95 169.24"/><polygon id="_Path_252" data-name="&lt;Path&gt;" class="cls-39" points="75.06 163.23 75 169.05 97.31 189.98 97.31 183.18 75.06 163.23"/><path id="_Path_253" data-name="&lt;Path&gt;" class="cls-32" d="M27.31,128.16l82.54-.47s15.73-21.9,29.74-21.33,17.1,19.51,17.23,40.51l-4.43-.29s.44-37.34-13.13-36.34c-14,1-25.8,22-25.8,22l-86.15.35Z"/><path id="_Path_254" data-name="&lt;Path&gt;" class="cls-40" d="M156.74,146.83c.12-21.14-3.33-40.24-17.35-40.64-13.2-.38-29.54,21.5-29.54,21.5l3.61,4.54s12-21.36,26.09-22c13-.6,12.84,36.35,12.84,36.35Z"/><g id="_Group_21" data-name="&lt;Group&gt;"><polygon id="_Path_255" data-name="&lt;Path&gt;" class="cls-4" points="146.72 153.7 143.51 152.59 144.59 155.82 146.72 153.7"/><polygon id="_Path_256" data-name="&lt;Path&gt;" class="cls-4" points="139.96 147.22 133.46 146.65 136.98 149.16 139.96 147.22"/><path id="_Path_257" data-name="&lt;Path&gt;" class="cls-4" d="M150.24,191.41a20.2,20.2,0,0,1,.64,2.46l-2.33.44Z"/><path id="_Path_258" data-name="&lt;Path&gt;" class="cls-4" d="M147.46,199.55c.4.31.58,2.63.58,2.63l-3,.11Z"/><polygon id="_Path_259" data-name="&lt;Path&gt;" class="cls-4" points="143.99 206.36 143.91 208.75 140.19 208.53 143.99 206.36"/><path id="_Path_260" data-name="&lt;Path&gt;" class="cls-4" d="M138.78,211.49c.34.43-.72,2.62-.72,2.62l-5.27-.09Z"/><path id="_Path_261" data-name="&lt;Path&gt;" class="cls-4" d="M105.24,215.86h27.45l-3.48-2.05-25.55-1.06-.06,1C103.57,214.23,104.72,215.84,105.24,215.86Z"/><polygon id="_Path_262" data-name="&lt;Path&gt;" class="cls-5" points="88.57 179.78 84.99 180.72 84.72 185.32 89.35 186.37 88.57 179.78"/><polygon id="_Path_263" data-name="&lt;Path&gt;" class="cls-5" points="89.39 174.52 85.8 172.16 86.66 168.13 90.73 166.91 89.39 174.52"/><polygon id="_Path_264" data-name="&lt;Path&gt;" class="cls-5" points="92.03 163.03 89.18 161.13 90.79 157.88 95.16 158.14 92.03 163.03"/><polygon id="_Path_265" data-name="&lt;Path&gt;" class="cls-5" points="96.18 154.16 94.62 151.53 97.32 148.81 100.28 150.6 96.18 154.16"/><polygon id="_Path_266" data-name="&lt;Path&gt;" class="cls-5" points="103.73 147.69 103.89 144.93 107.97 144.13 109.13 146.85 103.73 147.69"/><path id="_Path_267" data-name="&lt;Path&gt;" class="cls-5" d="M100.72,211.71c-.21.11-4.43.38-4.43.38l-2-2.2,2.19-2Z"/><path id="_Path_268" data-name="&lt;Path&gt;" class="cls-5" d="M94.55,205.52c-.2-.07-4-.24-4-.24l-1.41-3.14,2.89-1.5Z"/><polygon id="_Path_269" data-name="&lt;Path&gt;" class="cls-5" points="90.92 196.94 87.06 196.13 86.44 192.81 89.78 191.57 90.92 196.94"/><ellipse id="_Path_270" data-name="&lt;Path&gt;" class="cls-6" cx="107.25" cy="179.28" rx="33.94" ry="19.16" transform="translate(-78.07 275.71) rotate(-86.6)"/><rect id="_Rectangle_13" data-name="&lt;Rectangle&gt;" class="cls-6" x="107.22" y="146.1" width="25.57" height="67.88" transform="translate(10.88 -6.8) rotate(3.4)"/><polygon id="_Path_271" data-name="&lt;Path&gt;" class="cls-4" points="88.06 179.97 97 184.05 114.27 180.85 110.8 182.31 97.02 186.82 85.28 180.74 88.06 179.97"/><polygon id="_Path_272" data-name="&lt;Path&gt;" class="cls-7" points="117.56 164.32 114.71 162.53 116.31 159.4 120.68 159.66 117.56 164.32"/><polygon id="_Path_273" data-name="&lt;Path&gt;" class="cls-7" points="137.62 148.43 139.96 147.22 142.89 149.55 141.71 151.56 137.62 148.43"/><path id="_Path_274" data-name="&lt;Path&gt;" class="cls-7" d="M144.31,153.84a9.75,9.75,0,0,1,2.4-.14l1.38,2.62-1.59.94Z"/><polygon id="_Path_275" data-name="&lt;Path&gt;" class="cls-7" points="147.86 160.17 150.43 160.73 151.19 163.63 149.39 164.24 147.86 160.17"/><polygon id="_Path_276" data-name="&lt;Path&gt;" class="cls-7" points="149.94 166.76 152.12 167.17 152.59 170.13 150.78 170.61 149.94 166.76"/><polygon id="_Path_277" data-name="&lt;Path&gt;" class="cls-7" points="151.3 173.58 153.24 174.33 153.35 177.85 151.09 177.72 151.3 173.58"/><polygon id="_Path_278" data-name="&lt;Path&gt;" class="cls-7" points="151.11 180.56 153.11 181.48 152.91 184.76 150.66 185.82 151.11 180.56"/><path id="_Path_279" data-name="&lt;Path&gt;" class="cls-7" d="M150.51,188.61c0,.06,1.41,1.86,1.41,1.86l-1,3.49-2.35-.14Z"/><polygon id="_Path_280" data-name="&lt;Path&gt;" class="cls-7" points="148.39 196.26 149.43 199.32 148.04 202.18 145.93 201.77 148.39 196.26"/><polygon id="_Path_281" data-name="&lt;Path&gt;" class="cls-7" points="145.23 203.34 145.67 206.13 143.92 208.63 142.45 207.56 145.23 203.34"/><polygon id="_Path_282" data-name="&lt;Path&gt;" class="cls-7" points="140.44 209.4 140.25 212.62 137.94 214.1 136.79 212.3 140.44 209.4"/><path id="_Path_283" data-name="&lt;Path&gt;" class="cls-7" d="M134.48,213.3c0,.18-1.8,2.65-1.8,2.65l-3.63-.21.12-1.93Z"/><polygon id="_Path_284" data-name="&lt;Path&gt;" class="cls-4" points="89.81 167.19 98.71 172.54 116.28 167.97 97.84 175.95 86.66 168.13 89.81 167.19"/><polygon id="_Path_285" data-name="&lt;Path&gt;" class="cls-8" points="86.66 168.13 98.03 175.04 112.2 169.19 113.32 171.33 111.34 173.21 97.89 178.91 85.8 172.16 86.66 168.13"/><polygon id="_Path_286" data-name="&lt;Path&gt;" class="cls-4" points="90.91 157.89 93.04 158.02 100.16 161.67 116.33 159.02 99.43 164.9 90.91 157.89"/><polygon id="_Path_287" data-name="&lt;Path&gt;" class="cls-7" points="114.94 175.58 111.34 173.21 112.2 169.19 116.28 167.97 114.94 175.58"/><polygon id="_Path_288" data-name="&lt;Path&gt;" class="cls-4" points="94.62 151.53 103.41 154.13 120.17 152.59 121.5 154.84 102.85 157.9 95.9 153.68 94.62 151.53"/><polygon id="_Path_289" data-name="&lt;Path&gt;" class="cls-8" points="89.17 161.21 98.95 167.4 114.71 162.53 116.73 160.31 116.31 159.4 99.51 163.53 90.78 157.99 89.17 161.21"/><polygon id="_Path_290" data-name="&lt;Path&gt;" class="cls-4" points="103.81 146.41 110.43 148.72 129.32 148.74 130.52 146.68 129.5 145.99 113.4 145.89 103.89 144.93 103.81 146.41"/><polygon id="_Path_291" data-name="&lt;Path&gt;" class="cls-8" points="94.62 151.53 103.35 154.99 120.17 152.59 123.03 151.66 122.87 149.86 105.58 151.26 97.32 148.81 94.62 151.53"/><polygon id="_Path_292" data-name="&lt;Path&gt;" class="cls-8" points="103.95 144.93 111.97 146.87 129.5 146.02 132.16 146.18 133.3 145.17 114.16 144.85 108 144.14 103.95 144.93"/><polygon id="_Path_293" data-name="&lt;Path&gt;" class="cls-7" points="128.84 148.72 129 145.96 133.3 145.17 134.35 147.89 128.84 148.72"/><polygon id="_Path_294" data-name="&lt;Path&gt;" class="cls-7" points="121.73 155.22 120.17 152.59 122.87 149.86 125.83 151.65 121.73 155.22"/><path id="_Path_295" data-name="&lt;Path&gt;" class="cls-4" d="M88.93,191.88l10.27,3.88L114.4,193s-14.5,6.23-14.79,6.27-13.17-6.49-13.17-6.49Z"/><polygon id="_Path_296" data-name="&lt;Path&gt;" class="cls-8" points="84.99 180.72 96.54 186.31 111.14 181.82 111.84 184.43 111.16 186.48 97.01 190.67 84.72 185.32 84.99 180.72"/><polygon id="_Path_297" data-name="&lt;Path&gt;" class="cls-7" points="114.42 180.86 111.14 181.82 110.87 186.41 115.35 187.45 114.42 180.86"/><polygon id="_Path_298" data-name="&lt;Path&gt;" class="cls-4" points="91.59 200.87 103.84 204 117.59 201.7 114.13 204.18 104.87 206.88 89.15 202.14 91.59 200.87"/><polygon id="_Path_299" data-name="&lt;Path&gt;" class="cls-8" points="86.44 192.81 99.36 198.6 111.98 193.87 113.39 195.62 112.6 197.19 101.02 202.21 87.06 196.13 86.44 192.81"/><polygon id="_Path_300" data-name="&lt;Path&gt;" class="cls-4" points="96.48 207.89 109.62 211.26 121.42 209.5 121.97 211.04 110.13 213.89 94.29 209.89 96.48 207.89"/><polygon id="_Path_301" data-name="&lt;Path&gt;" class="cls-7" points="116.47 198 112.6 197.19 111.98 193.87 115.33 192.62 116.47 198"/><polygon id="_Path_302" data-name="&lt;Path&gt;" class="cls-8" points="89.15 202.14 104.44 206.28 114.7 203.2 116.62 204.47 116.11 206.34 105.45 209.51 90.56 205.28 89.15 202.14"/><path id="_Path_303" data-name="&lt;Path&gt;" class="cls-7" d="M120.1,206.58c-.2-.07-4-.24-4-.24l-1.41-3.14,2.89-1.5Z"/><path id="_Path_304" data-name="&lt;Path&gt;" class="cls-8" d="M94.29,209.89l15.23,3L119.84,211a10.89,10.89,0,0,1,1.94.92,10.36,10.36,0,0,1,.06,1.27L110.39,215l-14.1-2.91Z"/><path id="_Path_305" data-name="&lt;Path&gt;" class="cls-7" d="M126.27,212.77c-.21.1-4.43.37-4.43.37l-2-2.19,2.19-2Z"/><ellipse id="_Path_306" data-name="&lt;Path&gt;" class="cls-9" cx="132.77" cy="180.79" rx="33.94" ry="19.16" transform="translate(-55.58 302.61) rotate(-86.6)"/><ellipse id="_Path_307" data-name="&lt;Path&gt;" class="cls-10" cx="132.77" cy="180.79" rx="29.33" ry="16.55" transform="translate(-55.58 302.61) rotate(-86.6)"/><ellipse id="_Path_308" data-name="&lt;Path&gt;" class="cls-16" cx="132.77" cy="180.79" rx="17.36" ry="9.41" transform="translate(-55.58 302.61) rotate(-86.6)"/><path id="_Path_309" data-name="&lt;Path&gt;" class="cls-17" d="M133.69,165.2a5.07,5.07,0,0,0-2.83.7c3.18,2.32,5.21,8.25,4.8,15.06s-3.12,12.47-6.55,14.39a5.1,5.1,0,0,0,2.73,1c4.67.27,8.87-6.48,9.38-15.09S138.36,165.48,133.69,165.2Z"/><g id="_Group_22" data-name="&lt;Group&gt;"><path id="_Path_310" data-name="&lt;Path&gt;" class="cls-13" d="M125.65,190.15s1.66-2.78,3.56-1.2,3.1,7.53,3.1,7.53S127,196.28,125.65,190.15Z"/><path id="_Path_311" data-name="&lt;Path&gt;" class="cls-13" d="M135.58,195a8.06,8.06,0,0,1,.14-8.11c2.56-4.26,5-1.77,5-1.77S139.62,192.41,135.58,195Z"/><path id="_Path_312" data-name="&lt;Path&gt;" class="cls-13" d="M141.27,180s.17-8.26-2.94-11.51c0,0-2.77,5.11-1.39,8.37A4.78,4.78,0,0,0,141.27,180Z"/><path id="_Path_313" data-name="&lt;Path&gt;" class="cls-13" d="M135.46,165.66s-3.83-2.08-7.63,2.51c0,0,1.46,3.83,3.56,3.1S135.46,165.66,135.46,165.66Z"/><path id="_Path_314" data-name="&lt;Path&gt;" class="cls-13" d="M126.24,172.05a22.33,22.33,0,0,1,.48,7.57,15.68,15.68,0,0,1-1.78,5.32A23.5,23.5,0,0,1,126.24,172.05Z"/><polygon id="_Path_315" data-name="&lt;Path&gt;" class="cls-13" points="132.85 184.92 131.45 184.88 131.58 176.9 132.98 176.95 132.85 184.92"/><path id="_Path_316" data-name="&lt;Path&gt;" class="cls-13" d="M133.5,181c0,2.2-1,4-2.05,3.93s-1.95-1.85-1.92-4,1-4,2.05-3.93S133.54,178.75,133.5,181Z"/><path id="_Path_317" data-name="&lt;Path&gt;" class="cls-14" d="M134.9,181c0,2.2-1,4-2.05,3.93s-1.95-1.85-1.92-4,1-4,2-3.92S134.94,178.79,134.9,181Z"/><g id="_Group_23" data-name="&lt;Group&gt;"><polygon id="_Path_318" data-name="&lt;Path&gt;" class="cls-13" points="135.65 178.45 135.28 178.43 135.36 176.35 135.72 176.37 135.65 178.45"/><path id="_Path_319" data-name="&lt;Path&gt;" class="cls-13" d="M135.84,177.41c0,.58-.27,1-.56,1s-.5-.5-.48-1.07.27-1,.56-1S135.86,176.84,135.84,177.41Z"/><path id="_Path_320" data-name="&lt;Path&gt;" class="cls-14" d="M136.2,177.43c0,.58-.27,1-.55,1s-.5-.5-.48-1.07.27-1,.56-1S136.23,176.86,136.2,177.43Z"/></g><g id="_Group_24" data-name="&lt;Group&gt;"><polygon id="_Path_321" data-name="&lt;Path&gt;" class="cls-13" points="134.1 187.78 133.73 187.76 133.81 185.68 134.17 185.7 134.1 187.78"/><path id="_Path_322" data-name="&lt;Path&gt;" class="cls-13" d="M134.29,186.74c0,.58-.27,1-.56,1s-.5-.5-.48-1.07.27-1,.56-1S134.31,186.17,134.29,186.74Z"/><path id="_Path_323" data-name="&lt;Path&gt;" class="cls-14" d="M134.65,186.76c0,.58-.27,1-.55,1s-.5-.5-.48-1.07.27-1,.55-1S134.67,186.19,134.65,186.76Z"/></g><g id="_Group_25" data-name="&lt;Group&gt;"><polygon id="_Path_324" data-name="&lt;Path&gt;" class="cls-13" points="128.54 185.05 128.18 185.03 128.25 182.95 128.62 182.97 128.54 185.05"/><path id="_Path_325" data-name="&lt;Path&gt;" class="cls-13" d="M128.73,184c0,.58-.27,1-.55,1s-.5-.5-.48-1.07.27-1,.55-1S128.75,183.44,128.73,184Z"/><path id="_Path_326" data-name="&lt;Path&gt;" class="cls-14" d="M129.1,184c0,.58-.27,1-.56,1s-.5-.5-.48-1.07.27-1,.56-1S129.12,183.46,129.1,184Z"/></g><g id="_Group_26" data-name="&lt;Group&gt;"><polygon id="_Path_327" data-name="&lt;Path&gt;" class="cls-13" points="130.09 175.72 129.73 175.7 129.81 173.62 130.17 173.64 130.09 175.72"/><path id="_Path_328" data-name="&lt;Path&gt;" class="cls-13" d="M130.28,174.69c0,.57-.27,1-.55,1s-.5-.5-.48-1.07.27-1,.56-1S130.31,174.11,130.28,174.69Z"/><path id="_Path_329" data-name="&lt;Path&gt;" class="cls-14" d="M130.65,174.7c0,.58-.27,1-.56,1s-.5-.5-.47-1.07.27-1,.55-1S130.67,174.13,130.65,174.7Z"/></g></g></g><path id="_Path_330" data-name="&lt;Path&gt;" class="cls-18" d="M91.25,162.53c-.21.59-.41,1.2-.6,1.81a121.51,121.51,0,0,0,18.13,4c7.62,1.12,15,1.45,22.49-.47a64,64,0,0,0,17.58-7.61,35.48,35.48,0,0,0-1.57-3.46l.81-.48-1.38-2.62-1.78-.62a20.12,20.12,0,0,0-2.51-2.74l.47-.79L140,147.22l-6.08-.53-.58-1.52-19.14-.32-6.16-.71h0l-4.08.8-.09,1.52a16.5,16.5,0,0,0-4.42,3l-2.06-.62-2.7,2.73,1.19,2A33.88,33.88,0,0,0,93.17,158l-2.38-.14-1.61,3.25,0,0,0,.06Z"/><path id="_Compound_Path_" data-name="&lt;Compound Path&gt;" class="cls-41" d="M113.8,132H32c-3.82,0-6.65,2.45-5.77,5l3,8.81a4.29,4.29,0,0,0,2.22,2.32L46,156.28a7.94,7.94,0,0,0,3.56.81H75.65a8.06,8.06,0,0,0,2-.25l32.94-8.93a5.59,5.59,0,0,0,3.39-2.17l5.22-8C121,135,118.1,132,113.8,132ZM73,150.27H54.2c-1.32,0-2.39-.75-2.35-1.65l.42-10.76c0-.88,1.08-1.58,2.36-1.58h19c1.34,0,2.4.77,2.35,1.68l-.6,10.76C75.34,149.59,74.3,150.27,73,150.27Z"/><polygon id="_Path_331" data-name="&lt;Path&gt;" class="cls-11" points="57.28 189.49 74.68 189.1 55.43 172.59 57.28 189.49"/><path id="_Compound_Path_2" data-name="&lt;Compound Path&gt;" class="cls-34" d="M110,132H28.24c-3.83,0-6.65,2.45-5.78,5l3,8.81a4.31,4.31,0,0,0,2.21,2.32l14.5,8.17a7.94,7.94,0,0,0,3.56.81H71.87a8.06,8.06,0,0,0,2-.25l32.94-8.93a5.59,5.59,0,0,0,3.39-2.17l5.21-8C117.19,135,114.32,132,110,132ZM69.25,150.27H50.42c-1.33,0-2.39-.75-2.35-1.65l.42-10.76c0-.88,1.08-1.58,2.36-1.58h19c1.33,0,2.4.77,2.35,1.68l-.6,10.76C71.56,149.59,70.52,150.27,69.25,150.27Z"/><path id="_Path_332" data-name="&lt;Path&gt;" class="cls-42" d="M90.65,144c-6.28.63-12.55,1.06-18.85,1.23l-.19,3.5c0,.87-1.09,1.55-2.36,1.55H50.42c-1.33,0-2.39-.75-2.35-1.65l.16-4q-5.35-.43-10.67-1.2c-4.38-.65-8.79-1.4-13.1-2.42l-.69-.18,1.72,5a4.31,4.31,0,0,0,2.21,2.32l14.5,8.17a7.94,7.94,0,0,0,3.56.81H71.87a8.06,8.06,0,0,0,2-.25l32.94-8.93a5.59,5.59,0,0,0,3.39-2.17l3-4.64C105.78,142.44,98.18,143.23,90.65,144Z"/><rect id="_Rectangle_14" data-name="&lt;Rectangle&gt;" class="cls-43" x="26.22" y="132.76" width="14.49" height="2.44" rx="1.16" ry="1.16"/><path id="_Path_333" data-name="&lt;Path&gt;" class="cls-44" d="M48,129.05l.49,2.83H45.87L45,157h2l-.05.51a1.81,1.81,0,0,1-1.73,1.64l-2.41.08,1.56-30.47Z"/><path id="_Path_334" data-name="&lt;Path&gt;" class="cls-45" d="M44.29,128.86l-4.39-.08c-1,0-1.91.55-2,1.26l-1.66,27.65c-.05.85.94,1.55,2.17,1.55h4.28Z"/><path id="_Path_335" data-name="&lt;Path&gt;" class="cls-44" d="M84.12,129.05l.49,2.83H82l-.86,24,1.22-.33.15,1a1.78,1.78,0,0,1-1.27,1.95l-2.38.67,1.56-30.47Z"/><path id="_Path_336" data-name="&lt;Path&gt;" class="cls-45" d="M80.62,128.87l-5.36-.1c-.62,0-1.14.32-1.17.75L72.4,157.63c-.05.88,1,1.61,2.26,1.61h4.19Z"/><path id="_Path_337" data-name="&lt;Path&gt;" class="cls-32" d="M247.39,128.74s4.18,4.52,4.58,9.75c.16,2.06-2.95,1.77-2.95,1.77.14-2.36-4.51-9.88-4.51-9.88Z"/><rect id="_Rectangle_15" data-name="&lt;Rectangle&gt;" class="cls-43" x="100.28" y="83.94" width="23.03" height="2.01" rx="0.96" ry="0.96"/><rect id="_Rectangle_16" data-name="&lt;Rectangle&gt;" class="cls-43" x="83.04" y="132.8" width="27.23" height="2.44" rx="1.16" ry="1.16"/><rect id="_Rectangle_17" data-name="&lt;Rectangle&gt;" class="cls-43" x="46.95" y="132.76" width="26.12" height="2.44" rx="1.16" ry="1.16"/><path id="_Path_338" data-name="&lt;Path&gt;" class="cls-43" d="M222.8,130.71l-1.92.46c-.61.13-1.33.38-2.17.63s-1.76.61-2.79,1c-.5.2-1,.43-1.55.66s-1.09.49-1.65.77-1.13.56-1.7.9-1.16.65-1.73,1-1.17.74-1.73,1.17-1.15.84-1.7,1.31l-.85.69-.81.74c-.56.48-1.07,1-1.59,1.54s-1,1.09-1.5,1.64-.94,1.13-1.38,1.72a37.9,37.9,0,0,0-2.42,3.56,39.94,39.94,0,0,0-1.89,3.57c-.56,1.16-1,2.29-1.41,3.35a39.41,39.41,0,0,0-1.55,5.26c-.14.66-.23,1.19-.29,1.56,0,.09,0,.18,0,.25a.17.17,0,0,1,0,.07.68.68,0,0,1,0,.15c0,.1,0,.16,0,.16h0a1.3,1.3,0,0,0,0,.17,2.93,2.93,0,0,0,2.63,3,2.65,2.65,0,0,0,2.6-2.12h0v-.42s0-.22,0-.25,0-.13,0-.15,0-.14,0-.21c0-.29,0-.75.1-1.32a35.06,35.06,0,0,1,.87-4.75c.25-1,.55-2,.94-3.13a33,33,0,0,1,1.37-3.39,36.26,36.26,0,0,1,1.84-3.46c.34-.57.72-1.13,1.09-1.7s.78-1.12,1.22-1.64.85-1.08,1.31-1.58l.68-.76.72-.72c.46-.5,1-.94,1.46-1.39s1-.85,1.51-1.27,1-.78,1.53-1.15,1-.7,1.53-1,1-.64,1.49-.91,1-.55,1.44-.79c.94-.45,1.8-.92,2.6-1.23s1.47-.65,2.06-.84l1.83-.65Z"/><g id="_Group_27" data-name="&lt;Group&gt;"><path id="_Path_339" data-name="&lt;Path&gt;" class="cls-33" d="M46.05,128.16l-6.49.08c0-23,13.12-31.17,13.68-31.49l1.53,1.9,1.6,2.32C55.94,101.23,46.05,109.16,46.05,128.16Z"/></g><g id="_Group_28" data-name="&lt;Group&gt;"><path id="_Path_340" data-name="&lt;Path&gt;" class="cls-33" d="M82,127.87H75.75c0-23,13-31.66,13.56-32l1.58,2.88,1.59,2.47C92.05,101.49,82,108.87,82,127.87Z"/></g><rect id="_Rectangle_18" data-name="&lt;Rectangle&gt;" class="cls-43" x="38.63" y="130.17" width="2.36" height="27.7" rx="1.12" ry="1.12" transform="matrix(1, 0.07, -0.07, 1, 9.69, -2.33)"/><rect id="_Rectangle_19" data-name="&lt;Rectangle&gt;" class="cls-43" x="74.57" y="130.17" width="2.36" height="27.7" rx="1.12" ry="1.12" transform="translate(9.77 -4.73) rotate(3.82)"/><path id="_Path_341" data-name="&lt;Path&gt;" class="cls-46" d="M185,88c.06.13,0,.06,0,0Z"/><path id="_Path_342" data-name="&lt;Path&gt;" class="cls-46" d="M185,88h0C185,87.89,184.92,87.83,185,88Z"/><polygon id="_Path_343" data-name="&lt;Path&gt;" class="cls-46" points="184.98 87.96 184.98 87.96 184.98 87.95 184.98 87.96"/><path id="_Path_344" data-name="&lt;Path&gt;" class="cls-47" d="M195.86,60.87s-3.58-2.14-6.3,3.6.57,8,.57,8c1.68.83,3.39,1.72,5,2.62-8.25.07-19.17-.24-28.89-.77l-.71,13c.11,0,10.7.57,21.5.75,2.23,0,4.27,0,6.14,0C220.86,88.18,215.83,70.7,195.86,60.87Z"/><path id="_Path_345" data-name="&lt;Path&gt;" class="cls-1" d="M190.13,72.52c1.68.83,4.16,2.15,5,2.62,6.32-2.35,14.89-2.84,16.62.21-1.84-4.93-7.57-10.37-15.91-14.48,0,0-3.58-2.14-6.3,3.6S190.13,72.52,190.13,72.52Z"/><rect id="_Rectangle_20" data-name="&lt;Rectangle&gt;" class="cls-2" x="136.26" y="70.34" width="40.16" height="17.84" rx="8.48" ry="8.48"/><path id="_Path_346" data-name="&lt;Path&gt;" class="cls-20" d="M172.4,78.88V75a2.87,2.87,0,0,0-2.86-2.86H143.13A2.87,2.87,0,0,0,140.27,75v3.9Z"/><path id="_Path_347" data-name="&lt;Path&gt;" class="cls-2" d="M148.77,56.6a1.84,1.84,0,0,1-1.93-2.33c1.45-4.68,5.7-14.08,15.3-7.52C174,54.87,155.76,56.34,148.77,56.6Z"/><g id="_Group_29" data-name="&lt;Group&gt;"><path id="_Path_348" data-name="&lt;Path&gt;" class="cls-2" d="M138.45,77.75l-2.25-.3,1.62-11.77a12.87,12.87,0,0,1,6.31-9.38l8.56-5,1.15,1.94-8.55,5A10.58,10.58,0,0,0,140.08,66Z"/></g><path id="_Path_349" data-name="&lt;Path&gt;" class="cls-48" d="M173.67,57c.11,1.88,2.52,3.06,4.18,3.2,2.56.2,5.6-1.74,5.4-4.57l-1.33-9.82A3.69,3.69,0,0,0,178,42.36l-.93.06a3.69,3.69,0,0,0-3.42,3.92Z"/><path id="_Path_350" data-name="&lt;Path&gt;" class="cls-49" d="M177.07,42.42l.93-.06a3.69,3.69,0,0,1,3.92,3.42l.73,5.4a7.83,7.83,0,0,1-4.18,1.58,15.91,15.91,0,0,1-4.81-.41v-6A3.69,3.69,0,0,1,177.07,42.42Z"/><path id="_Path_351" data-name="&lt;Path&gt;" class="cls-49" d="M160.45,29c1.7-.25,3.34,1.4,3.68,3.68s-.77,4.33-2.46,4.58-3.34-1.4-3.68-3.68S158.76,29.2,160.45,29Z"/><path id="_Path_352" data-name="&lt;Path&gt;" class="cls-48" d="M174.56,10.2l5.71.08c7.53.09,13.62,8.51,13.53,16l-.13,10.33a13.73,13.73,0,0,1-13.85,13.51l-5.72-.07a13.71,13.71,0,0,1-13.51-13.85l.12-10.32C160.81,18.38,167,10.11,174.56,10.2Z"/><path id="_Path_353" data-name="&lt;Path&gt;" class="cls-48" d="M195.75,28.75c1.63.49,2.41,2.68,1.75,4.87s-2.54,3.57-4.17,3.08-2.41-2.68-1.74-4.88S194.12,28.25,195.75,28.75Z"/><path id="_Path_354" data-name="&lt;Path&gt;" class="cls-49" d="M176.42,48.48c9.25-.13,14.65-6.08,16-14.55a6.25,6.25,0,0,0,1.37,0,5.17,5.17,0,0,0,3.89-2.74,5.28,5.28,0,0,1-.16,2.41c-.63,2.05-2.29,3.36-3.84,3.13a13.72,13.72,0,0,1-13.84,13.4l-5.72-.07a13.72,13.72,0,0,1-13.36-11.72C163.25,43.48,166,48.63,176.42,48.48Z"/><path id="_Path_355" data-name="&lt;Path&gt;" class="cls-29" d="M170.06,38.35l11.32.12a1.07,1.07,0,0,1,.88,1.47c-1.21,3.21-3.66,5.4-6.49,5.37s-5.31-2.27-6.56-5.5A1,1,0,0,1,170.06,38.35Z"/><path id="_Path_356" data-name="&lt;Path&gt;" class="cls-50" d="M169.19,27.38c1,.44,1.33,2.15.74,3.82S168,33.88,167,33.44s-1.33-2.14-.74-3.82S168.19,27,169.19,27.38Z"/><path id="_Path_357" data-name="&lt;Path&gt;" class="cls-51" d="M169.68,31.78c-.66,1.31-1.76,2-2.64,1.66s-1.33-2.14-.74-3.82a4.75,4.75,0,0,1,.88-1.52C167.6,28.86,169.3,31.29,169.68,31.78Z"/><path id="_Path_358" data-name="&lt;Path&gt;" class="cls-50" d="M185.38,28c1,.43,1.33,2.14.74,3.81s-1.89,2.68-2.89,2.24-1.33-2.14-.74-3.81S184.38,27.52,185.38,28Z"/><path id="_Path_359" data-name="&lt;Path&gt;" class="cls-51" d="M185.87,32.35c-.66,1.32-1.76,2-2.64,1.66s-1.33-2.14-.74-3.81a4.81,4.81,0,0,1,.88-1.53C183.79,29.43,185.49,31.86,185.87,32.35Z"/><path id="_Path_360" data-name="&lt;Path&gt;" class="cls-52" d="M160.68,28.93S158.11,7.58,177.9,6.61C197.3,5.66,193.76,29,193.76,29s-1,.5-1.52-1.46c-1.12-4.45-4-12.87-7.59-12.84,0,0-5.06,2.48-8.68,2.35a12.07,12.07,0,0,1-6.72-2.33C166.13,14.82,161.94,22.61,160.68,28.93Z"/><path id="_Path_361" data-name="&lt;Path&gt;" class="cls-52" d="M168.46,14s-7.05-2.33-5.06-12.14c0,0,19.09-2.22,24.81,6.54,0,0,5.57-3.2,7.79.71,3,5.33-2.22,17.94-2.22,17.94s-3.84-12.15-6.31-13.9S168.46,14,168.46,14Z"/><path id="_Path_362" data-name="&lt;Path&gt;" class="cls-52" d="M160.68,28.93s-3-20.28,4.37-19.65-2.2,8.22-2.2,8.22Z"/><path id="_Path_363" data-name="&lt;Path&gt;" class="cls-52" d="M172,2.65A5.33,5.33,0,0,1,170.8,0s13.85.71,17.41,8.43S172,2.65,172,2.65Z"/><path id="_Path_364" data-name="&lt;Path&gt;" class="cls-52" d="M186.17,6.82c-.11-.06-2.07-1.94-2.15-3.75,0,0,3.31.73,4.35,2.94,0,0-.19-1.71,2-2.89a5.07,5.07,0,0,1-.3,3.39s.27-.52,1.4-.67a1.85,1.85,0,0,1-.39,1.51l.32,1.56-3.57.49Z"/><path id="_Path_365" data-name="&lt;Path&gt;" class="cls-53" d="M163.83,9.39C158,11,160.68,28.93,160.68,28.93c1.26-6.32,5.45-14.11,8.57-14.22A20.42,20.42,0,0,1,163.83,9.39Z"/><path id="_Path_366" data-name="&lt;Path&gt;" class="cls-54" d="M195.69,8.66a3.58,3.58,0,0,0-1.91-1.3c-.71.1-1.47.26-2.25.42a25.76,25.76,0,0,1-2.7.45l-.7,0-.66,0-.38,0-.41,0-.21.29-.05.28h0c.12,0,0-.31.06-.31l0-.18-.09-.08L186,8.21a13.06,13.06,0,0,1-2.83-.86c-1-.4-2-.91-3.09-1.42s-2.17-1-3.29-1.55a24.78,24.78,0,0,0-3.51-1.25l-.91-.23c-.31-.06-.66-.16-1-.21l-.49-.15-.4,0c-.3,0-.6.08-.89.07a10.11,10.11,0,0,0-3.4.73,7.22,7.22,0,0,0-2.48,1.56,5.77,5.77,0,0,0-.68.75,11.31,11.31,0,0,0,.25,2.12l.24-.18A7.56,7.56,0,0,1,165,6.78a6.93,6.93,0,0,1,2-.46,9.82,9.82,0,0,1,2.38.13l.67.13.39.08.31.1.62.18.7.24c.95.35,1.95.74,3,1.21s2.12.95,3.25,1.43a35.85,35.85,0,0,0,3.53,1.33,14.13,14.13,0,0,0,3.93.67l.51-.48.13-.47h0l.08.47v.24l0,.11.21,0c.29,0,.52,0,.85-.07l.94-.16c.29-.08.57-.13.85-.21a20,20,0,0,0,2.89-1.14c.83-.4,1.54-.76,2.17-1A7.62,7.62,0,0,1,195.69,8.66Z"/></g></g></svg>