<svg xmlns="http://www.w3.org/2000/svg" viewBox="0 0 208.22 215.87"><defs><style>.cls-1,.cls-11{opacity:0.1;}.cls-2{fill:#810a0a;}.cls-3{fill:#d8937d;}.cls-4{opacity:0.08;}.cls-5,.cls-6{opacity:0.05;}.cls-11,.cls-13,.cls-37,.cls-6,.cls-61,.cls-8{fill:#fff;}.cls-7{fill:#3f3f3f;}.cls-47,.cls-8{opacity:0.07;}.cls-9{fill:#545151;}.cls-10{fill:#654e4c;}.cls-12{fill:#acacac;}.cls-13{opacity:0.55;}.cls-14{fill:#999;}.cls-15{fill:#666;}.cls-16{fill:#242729;}.cls-17{fill:#454646;}.cls-18{fill:#a42424;}.cls-19{fill:#bd2929;}.cls-20{fill:#a5aaab;}.cls-21{fill:#303336;}.cls-22{fill:#767676;}.cls-23{fill:#7f8080;}.cls-24{fill:#e5bbb1;}.cls-25{opacity:0.2;}.cls-26{fill:#464646;}.cls-27{fill:#686868;}.cls-28{fill:#535455;}.cls-29{fill:#d8917b;}.cls-30{fill:#e5a185;}.cls-31{fill:#4f231a;}.cls-32{opacity:0.11;}.cls-33{fill:#23110d;}.cls-34{fill:#e8940f;}.cls-35{fill:#f9a715;}.cls-36{fill:#c78575;}.cls-38{fill:#381911;}.cls-39{fill:#181717;}.cls-40{fill:#232121;}.cls-41{fill:#fbd6cc;}.cls-42{fill:#96968a;}.cls-43{fill:#7e7e78;}.cls-44{fill:#d6d6d6;}.cls-45{opacity:0.06;}.cls-46{fill:#999385;}.cls-48{fill:#65625d;}.cls-49{fill:#940a0a;}.cls-50{opacity:0.13;}.cls-51{fill:#2b2e31;}.cls-52{fill:#bd342d;}.cls-53{fill:#db3f31;}.cls-54{fill:#b8acac;}.cls-55{fill:#dcd3d3;}.cls-56{fill:#fffde9;}.cls-57{fill:#c01212;}.cls-58{opacity:0.09;}.cls-59{fill:#a60000;}.cls-60{fill:#cc2525;}.cls-61{opacity:0.17;}.cls-62{fill:#d6c8b8;}.cls-63{fill:#8e0000;}.cls-64{fill:#4f4d4a;}</style></defs><title>Asset 1</title><g id="Layer_2" data-name="Layer 2"><g id="_ÎÓÈ_1" data-name="—ÎÓÈ_1"><path class="cls-1" d="M208.22,206.93a616,616,0,0,1-104.11,8.94A616,616,0,0,1,0,206.93a610,610,0,0,1,208.22,0Z"/><g id="_Group_" data-name="&lt;Group&gt;"><path id="_Path_" data-name="&lt;Path&gt;" class="cls-2" d="M178.77,90.59c-4.41-5.83-13.61-8-22.52-10.13-3.55-.84-6.91-1.64-9.93-2.65A19.87,19.87,0,0,1,133.41,65.3c0-.14-.08-.24-.11-.3l.49-.22.44-.64c.2.14.26.3.41.73a18.64,18.64,0,0,0,12.09,11.71c3,1,6.3,1.78,9.82,2.62,9.13,2.16,18.57,4.4,23.26,10.6Z"/></g><path id="_Path_2" data-name="&lt;Path&gt;" class="cls-3" d="M46.38,87.84S40,90.93,40,96c0,1.3-.34,3,.67,4.08a1.74,1.74,0,0,0,2.31.18,2,2,0,0,0,3,.19,2.21,2.21,0,0,0,3.19.21,3.66,3.66,0,0,0,1,.43,2,2,0,0,0,1.24-.2,6.46,6.46,0,0,0,1.54-1.23,5.5,5.5,0,0,0,1.13-4.86,3.85,3.85,0,0,1,1.42-4.1Z"/><path id="_Path_3" data-name="&lt;Path&gt;" class="cls-4" d="M50.16,97.13a9.72,9.72,0,0,0-1.07-.37c-.33,0-.74.39-1.08.47a2.36,2.36,0,0,1-2.16-.61,1.9,1.9,0,0,1-2.83,0c-1.33,1.07-2.28.46-3-.45,0,1.28-.3,2.94.67,3.93a1.74,1.74,0,0,0,2.31.18,2,2,0,0,0,3,.19,2.21,2.21,0,0,0,3.19.21,3.81,3.81,0,0,0,1,.43,2,2,0,0,0,1.24-.2,6.46,6.46,0,0,0,1.54-1.23,5.35,5.35,0,0,0,1.25-4.06A3.93,3.93,0,0,1,50.16,97.13Z"/><g id="_Group_2" data-name="&lt;Group&gt;"><path id="_Path_4" data-name="&lt;Path&gt;" class="cls-3" d="M111,58.2c-1-1.42-.8-3.94-2.24-2.93-6.35,4.43-25,17.17-35.63,21C63.82,79.57,46.59,87,45.51,88.32c.7,1.07,4.26-.57,4.87.55.5,2.63,1.25,2.22,1.55,2.14,4.36-1.2,12.18-5.79,21.93-8.52C85.78,79.15,103,67.57,109.65,62.92a3.24,3.24,0,0,0,.75-4.57Z"/></g><g id="_Group_3" data-name="&lt;Group&gt;" class="cls-5"><path id="_Path_5" data-name="&lt;Path&gt;" d="M111,58.2c-1-1.42-.8-3.94-2.24-2.93-2.34,1.63-6.35,4.39-11,7.41-.5,3.81-2.61,7.89-4.24,10.63,6.71-3.93,12.76-8,16.11-10.39a3.24,3.24,0,0,0,.75-4.57Z"/></g><path id="_Path_6" data-name="&lt;Path&gt;" class="cls-6" d="M75.81,167.05c-3.24,2.58-8.18,6-10.67,5.13l-.25-.08a18.81,18.81,0,0,0,.77,3.65c.77-.09,1.55-.19,2.32-.32a23.59,23.59,0,0,0,8.17-2.84,25.62,25.62,0,0,0,3.33-2.36c-.9-.83-1.8-1.65-2.75-2.44Z"/><path id="_Path_7" data-name="&lt;Path&gt;" class="cls-7" d="M140.2,35.52l1,1.5a64.68,64.68,0,0,1-1.63,8.41s-3.9,3.47-21.22,3c-13.5-.4-19.18-4.88-19.18-4.88s.94-5.2.69-6.63Z"/><path id="_Path_8" data-name="&lt;Path&gt;" class="cls-8" d="M110.57,29.46a2.31,2.31,0,0,0-2,2.52,2.83,2.83,0,0,0,0,.29c1.15-.64,2.29-1.28,3.42-2A1.79,1.79,0,0,0,110.57,29.46Z"/><path id="_Path_9" data-name="&lt;Path&gt;" class="cls-9" d="M102.42,91.64c.07.14,0,.07,0,0Z"/><path id="_Path_10" data-name="&lt;Path&gt;" class="cls-9" d="M102.42,91.64Z"/><polygon id="_Path_11" data-name="&lt;Path&gt;" class="cls-9" points="102.42 91.64 102.42 91.64 102.42 91.64 102.42 91.64"/><path id="_Path_12" data-name="&lt;Path&gt;" class="cls-10" d="M135.56,11.54v.06C135.69,11.68,135.68,11.64,135.56,11.54Z"/><path id="_Path_13" data-name="&lt;Path&gt;" class="cls-11" d="M104.52,14.66c-.66.12-1.33.26-2,.43Z"/><rect id="_Rectangle_" data-name="&lt;Rectangle&gt;" class="cls-12" x="44.09" y="75.57" width="1.07" height="9.59" transform="translate(89.24 160.73) rotate(180)"/><path id="_Path_14" data-name="&lt;Path&gt;" class="cls-12" d="M42.17,80.37c0,2.64,1.34,4.79,3,4.79s3-2.15,3-4.79-1.34-4.8-3-4.8S42.17,77.72,42.17,80.37Z"/><path id="_Path_15" data-name="&lt;Path&gt;" class="cls-13" d="M43.65,76.23c1.07.09,2.14.17,3.21.21a6,6,0,0,1,1.28,3.93,6.91,6.91,0,0,1-.52,2.7c-1.56.11-3.1.33-4.64.57a6.54,6.54,0,0,1-.81-3.27A5.79,5.79,0,0,1,43.65,76.23Z"/><path id="_Path_16" data-name="&lt;Path&gt;" class="cls-14" d="M41.1,80.37c0,2.64,1.34,4.79,3,4.79s3-2.15,3-4.79-1.34-4.8-3-4.8S41.1,77.72,41.1,80.37Z"/><path id="_Path_17" data-name="&lt;Path&gt;" class="cls-13" d="M44.05,80.86c-.65-1-1.85-3.1-1.41-4.28a2.69,2.69,0,0,0,.14-.52,2.13,2.13,0,0,1,1.31-.49c1.64,0,3,2.15,3,4.8a7,7,0,0,1-.55,2.77A5.79,5.79,0,0,1,44.05,80.86Z"/><g id="_Group_4" data-name="&lt;Group&gt;"><path id="_Path_18" data-name="&lt;Path&gt;" class="cls-15" d="M47,93l1-.79-4.67-6.07a3.5,3.5,0,0,1-.66-3.09,3.24,3.24,0,0,1,1.73-2,.46.46,0,0,0,.22-.58h0a.78.78,0,0,0-1.13-.41,4.5,4.5,0,0,0-2.09,2.76A4.81,4.81,0,0,0,42.31,87Z"/></g><path id="_Path_19" data-name="&lt;Path&gt;" class="cls-16" d="M47.79,98.32H94.7A2.27,2.27,0,0,0,97,96.05h0a2.28,2.28,0,0,0-2.27-2.28H47.79a2.29,2.29,0,0,0-2.28,2.28h0A2.28,2.28,0,0,0,47.79,98.32Z"/><path id="_Path_20" data-name="&lt;Path&gt;" class="cls-17" d="M168.11,177H169a3.37,3.37,0,0,0,3.36-3.36h0a3.37,3.37,0,0,0-3.36-3.35h-.92a3.37,3.37,0,0,0-3.36,3.35h0A3.37,3.37,0,0,0,168.11,177Z"/><rect id="_Rectangle_2" data-name="&lt;Rectangle&gt;" class="cls-18" x="64.79" y="91.5" width="17.77" height="8.89" rx="4" ry="4" transform="translate(147.35 191.88) rotate(180)"/><path id="_Path_21" data-name="&lt;Path&gt;" class="cls-19" d="M75,108.93s6.18-13.37-7.42-21.12c-10.94-6.23-21.88-2.33-22.1,8.24s14.08,13.81,14.08,13.81Z"/><path id="_Path_22" data-name="&lt;Path&gt;" class="cls-18" d="M59.09,84.93C66.22,89.39,70.5,98.72,65,106.4a10.85,10.85,0,0,1-4.32,3.4l-1,.06s-14.3-3.25-14.08-13.81C45.68,88.29,51.61,84.13,59.09,84.93Z"/><path id="_Path_23" data-name="&lt;Path&gt;" class="cls-18" d="M134,135.28s15.56,2.7,21,27.07H124.39S121.66,184,87.74,183.79l-33.93-.19s-.4-17.15-11.89-30.42a51.65,51.65,0,0,0-5-5.14,4.31,4.31,0,0,1-1.21-4.83c2.6-6.65,8.88-22.14,14-29.86a10,10,0,0,1,8.3-4.42H71.83s-10.35,31.29-8,44.55a109.69,109.69,0,0,0,7.59,24.46h14a5.72,5.72,0,0,0,5.66-6.62c-1.49-9.43-3.64-26-1-30.42,2.28-3.77,3.9-4.48,3.9-4.48Z"/><path id="_Path_24" data-name="&lt;Path&gt;" class="cls-20" d="M29.46,180.45l8-22.92a26.1,26.1,0,0,0,4.66.39,3,3,0,0,0,1.29-.31l-8.65,24.7a2.82,2.82,0,1,1-5.32-1.86Z"/><g id="_Group_5" data-name="&lt;Group&gt;"><path id="_Compound_Path_" data-name="&lt;Compound Path&gt;" class="cls-21" d="M34.52,208.27c13.76,1.31,26.22-10.29,27.82-25.9s-8.24-29.33-22-30.64S14.13,162,12.53,177.64,20.77,207,34.52,208.27Zm-11-26.94a18.86,18.86,0,0,1,1.13-5.49,2.42,2.42,0,0,1-.15-2.05c2-5.94,6.62-10.23,13.22-10.8a2.75,2.75,0,0,1,1.55.29c8.11,1.1,12.86,7.31,12.93,15.33,0,7.09-4.4,15.7-12.09,17.45C31.14,198.1,23.22,189.54,23.56,181.33Z"/></g><g id="_Group_6" data-name="&lt;Group&gt;"><path id="_Compound_Path_2" data-name="&lt;Compound Path&gt;" class="cls-16" d="M36.4,202.68c11,1,21-8.23,22.26-20.72s-6.59-23.47-17.6-24.51-21,8.23-22.25,20.72S25.4,201.64,36.4,202.68Zm-9.62-23.75c.77-7.49,6.75-13.06,13.35-12.43s11.33,7.21,10.56,14.7-6.75,13.06-13.35,12.43S26,186.42,26.78,178.93Z"/></g><path id="_Path_25" data-name="&lt;Path&gt;" class="cls-22" d="M46.63,181.2c.73-7.11-3.5-13.39-9.57-14.55a10.46,10.46,0,0,1,3.07-.15c6.6.62,11.33,7.21,10.56,14.7s-6.75,13.06-13.35,12.43c-.34,0-.67-.09-1-.15C41.64,192.45,46,187.51,46.63,181.2Z"/><path id="_Path_26" data-name="&lt;Path&gt;" class="cls-23" d="M30.22,180.42c0,2.08,1.37,3.77,3.06,3.77s3.06-1.69,3.06-3.77-1.37-3.78-3.06-3.78S30.22,178.33,30.22,180.42Z"/><rect id="_Path_27" data-name="&lt;Path&gt;" class="cls-23" x="33.09" y="176.64" width="10" height="7.56"/><g id="_Group_7" data-name="&lt;Group&gt;"><path id="_Compound_Path_3" data-name="&lt;Compound Path&gt;" class="cls-21" d="M141.43,205.57c12.44,1.18,23.7-9.31,25.16-23.43s-7.46-26.52-19.9-27.7-23.7,9.3-25.16,23.42S129,204.39,141.43,205.57Zm-9.92-24.37a16.64,16.64,0,0,1,1-5,2.16,2.16,0,0,1-.15-1.85c1.8-5.37,6-9.26,12-9.77a2.48,2.48,0,0,1,1.41.26c7.33,1,11.63,6.61,11.69,13.87.05,6.41-4,14.19-10.94,15.77C138.37,196.37,131.2,188.63,131.51,181.2Z"/></g><g id="_Group_8" data-name="&lt;Group&gt;"><path id="_Compound_Path_4" data-name="&lt;Compound Path&gt;" class="cls-16" d="M143.13,200.51c10,1,19-7.44,20.12-18.74s-6-21.22-15.91-22.16-19,7.44-20.13,18.74S133.17,199.57,143.13,200.51ZM134.42,179c.7-6.78,6.1-11.81,12.08-11.24s10.24,6.52,9.55,13.3S149.94,192.9,144,192.33,133.72,185.81,134.42,179Z"/></g><path id="_Path_28" data-name="&lt;Path&gt;" class="cls-22" d="M152.37,181.09c.66-6.44-3.16-12.12-8.65-13.17a9.9,9.9,0,0,1,2.78-.13c6,.56,10.24,6.52,9.55,13.3S149.94,192.9,144,192.33a8.87,8.87,0,0,1-.9-.14C147.86,191.26,151.78,186.79,152.37,181.09Z"/><path id="_Path_29" data-name="&lt;Path&gt;" class="cls-23" d="M137.53,180.38c0,1.88,1.24,3.41,2.77,3.41s2.77-1.53,2.77-3.41S141.83,177,140.3,177,137.53,178.49,137.53,180.38Z"/><rect id="_Path_30" data-name="&lt;Path&gt;" class="cls-23" x="140.13" y="176.96" width="9.05" height="6.84"/><path id="_Path_31" data-name="&lt;Path&gt;" class="cls-24" d="M90.75,134.13a3.82,3.82,0,0,1-.3-1.13c-.41-3.16,1.82-10.1,5.81-10.1H130a7,7,0,0,1,0,13.91H100.1C97.17,136.81,92.1,137.35,90.75,134.13Z"/><path id="_Path_32" data-name="&lt;Path&gt;" class="cls-20" d="M40.93,180.45l9-25.62a13.17,13.17,0,0,0,4.38,4.55l-8,22.93a2.82,2.82,0,1,1-5.32-1.86Z"/><path id="_Path_33" data-name="&lt;Path&gt;" class="cls-25" d="M44.18,171.19l5.72-16.36a13.17,13.17,0,0,0,4.38,4.55l-4.62,13.2Q46.93,171.85,44.18,171.19Z"/><g id="_Group_9" data-name="&lt;Group&gt;"><path id="_Path_34" data-name="&lt;Path&gt;" class="cls-26" d="M41.82,180.42a2.16,2.16,0,0,0,1.89,2.34,2.4,2.4,0,0,0,0-4.69A2.16,2.16,0,0,0,41.82,180.42Z"/><rect id="_Rectangle_3" data-name="&lt;Rectangle&gt;" class="cls-26" x="43.71" y="178.07" width="2.58" height="4.69" transform="translate(90 360.83) rotate(180)"/><path id="_Path_35" data-name="&lt;Path&gt;" class="cls-27" d="M44.39,180.42a2.16,2.16,0,0,0,1.9,2.34,2.4,2.4,0,0,0,0-4.69A2.16,2.16,0,0,0,44.39,180.42Z"/></g><path id="_Path_36" data-name="&lt;Path&gt;" class="cls-16" d="M104.48,182.38c3-.15,6,.12,8.57-1.71a7.77,7.77,0,0,0,3-5.62h29.68a5.9,5.9,0,1,1,0,11.8H92a5.91,5.91,0,0,1-5.61-4.09C92.44,182.89,98.44,182.7,104.48,182.38Z"/><path id="_Path_37" data-name="&lt;Path&gt;" class="cls-28" d="M123.42,178.07h43.06a4.39,4.39,0,0,0,4.39-4.38h0a4.4,4.4,0,0,0-4.39-4.39H123.42a4.4,4.4,0,0,0-4.39,4.39h0A4.4,4.4,0,0,0,123.42,178.07Z"/><g id="_Group_10" data-name="&lt;Group&gt;"><path id="_Path_38" data-name="&lt;Path&gt;" class="cls-29" d="M98.38,110.51l-6.56-.7c-4.26-.45-11.56-.47-14.83,2.3s-4.78,5.19-3.82,10.7a18.34,18.34,0,0,0,1.18,3.45c2.08.39,2.64-2.23,4.75-2,1.75.23,3.52.4,5.28.55.38,0,.76,0,1.13,0-.25-.71-.53,1.16-.84.4-1.72-4.17,4.86-4.14,5.59-4.06l7.29.7a5.56,5.56,0,0,0,6.06-5A5.88,5.88,0,0,0,98.38,110.51Z"/></g><g id="_Group_11" data-name="&lt;Group&gt;"><path id="_Path_39" data-name="&lt;Path&gt;" class="cls-30" d="M107.33,109.2H95.53a12.77,12.77,0,0,0-9.17,3.71,12.14,12.14,0,0,0-3.31,12.53l.24.82,1.28-.05a2.1,2.1,0,0,1,1.89-.2l1.11.09c2.6-.22,4.72.1,7.33,0-.94-4.88,3.77-2.77,6.21-2.91,3.11-.19,6.39-.45,6.39-.45,3,0,5.72-3.22,5.72-7.61h0A5.89,5.89,0,0,0,107.33,109.2Z"/></g><path id="_Path_40" data-name="&lt;Path&gt;" class="cls-31" d="M77.68,111.6s25.4-3.49,25.57,4.88c.1,4.7-5.83,6.34-5.83,6.34s6.91,1.24,23.51,1.24,20.86-5.6,21.29-15.13-8.83-21.84-8.83-21.84l-26.61,1.39s-1.62,7.5-1.62,11.9C105.16,100.38,83.47,106.14,77.68,111.6Z"/><path id="_Path_41" data-name="&lt;Path&gt;" class="cls-32" d="M133.39,87.09l-6.31.33c3.88,7.94,4.53,17.74-4.2,22.86-6.24,3.67-13.24,4.43-20.29,4.16a3.57,3.57,0,0,1,.66,2c.1,4.7-5.83,6.34-5.83,6.34s6.91,1.24,23.51,1.24,20.86-5.6,21.29-15.13S133.39,87.09,133.39,87.09Z"/><path id="_Path_42" data-name="&lt;Path&gt;" class="cls-30" d="M108.07,60.79l.88.7c1.78-1.81,4.6-2.94,5.89-5-.85-.4-1.71-.81-2.58-1.24C110.85,57.1,109.44,58.93,108.07,60.79Z"/><path id="_Path_43" data-name="&lt;Path&gt;" class="cls-33" d="M123.16,7.2s-3.31-2.9-6.51-1.32a38.54,38.54,0,0,0-10.32,7.55c-1.82,1.86-4.66,4.69-5.24,7.32a33.5,33.5,0,0,0-.71,6.3c0,2,.77,3.71,1.15,5.61a18.6,18.6,0,0,1,.5,5.8,20.26,20.26,0,0,0,.21,5.32,21.85,21.85,0,0,0,1.83,7.52,13.31,13.31,0,0,0,6.85,6,18.93,18.93,0,0,0,4.32,1.18c1.43.23,2.92.14,4.32.5a9.64,9.64,0,0,0,3.17.37c1.62-.09,3.23.21,4.84.11a46.59,46.59,0,0,0,5.76-.77,40.12,40.12,0,0,0,10.75-3.47A23.26,23.26,0,0,0,152.67,48c-4.45.25-9.2-2.33-10.51-6.58s-.7-8.77-1.46-13a42.64,42.64,0,0,0-3.19-10.54c-1.74-3.75-4.28-7.44-7.88-9.63a9.76,9.76,0,0,0-3.74-1.43A20.74,20.74,0,0,0,123.16,7.2Z"/><path id="_Path_44" data-name="&lt;Path&gt;" class="cls-30" d="M129.81,54.31a5.78,5.78,0,0,1,0-2.23l-.49,0a44.55,44.55,0,0,0-7.39.4,27.34,27.34,0,0,1-4.34,0c-2.51.75-4.42,1.2-4.42,1.2a11.48,11.48,0,0,1-2.67,3.18l.3.75c1,2.68,1.92,5.41,2.86,8.12,2.75-1.15,5.51-2.26,8.31-3.29s5.48-1.92,8.26-2.75A24.79,24.79,0,0,0,129.81,54.31Z"/><path id="_Path_45" data-name="&lt;Path&gt;" class="cls-34" d="M111,54.51s-9.44-3.81-9.28,1.88,5.36,9.67,5.36,9.67Z"/><path id="_Path_46" data-name="&lt;Path&gt;" class="cls-35" d="M107.07,80.74a28.84,28.84,0,0,1-.29,7.49s1.42,1.44,12.13,1.23c10.17-.2,14.48-2.37,14.48-2.37a22.6,22.6,0,0,1-.74-3.75,4.62,4.62,0,0,1,.07-1.07c.14-1.35.4-2.7.67-4,.7-3.48,1.56-6.92,2.42-10.36a48.2,48.2,0,0,0,1.53-7.33c.31-3.71-1.2-7.38-5.18-8.15-.28,0-3.68-.68-3.69-.42-.06,2.3-3.85,5.12-6.8,7a5.26,5.26,0,0,1-7.17-1.53,7.9,7.9,0,0,1-1.36-3.84L111,54a4.44,4.44,0,0,0-3.46,4.47c.51,7-4.08,9.48-3.92,12.2a18.34,18.34,0,0,0,1.71,6.3C106,78.44,106.82,79.16,107.07,80.74Z"/><path id="_Path_47" data-name="&lt;Path&gt;" class="cls-30" d="M119.91,59.36h0a3.7,3.7,0,0,1-3.26-4l.44-8.95a3.66,3.66,0,0,1,3.63-3.68h0a3.68,3.68,0,0,1,3.26,4l-.43,9A3.69,3.69,0,0,1,119.91,59.36Z"/><path id="_Path_48" data-name="&lt;Path&gt;" class="cls-36" d="M123.85,49.41l.13-2.69a3.47,3.47,0,1,0-6.89-.34l-.15,3.06A14,14,0,0,0,123.85,49.41Z"/><path id="_Path_49" data-name="&lt;Path&gt;" class="cls-30" d="M119.84,48.68a14.75,14.75,0,0,1-6.79-1.4c-9.84-4.56-12.16-18.5-8.07-27.66l.06-.14a18.45,18.45,0,0,1,1.68-3,18.18,18.18,0,0,1,9.11-7.19,16.43,16.43,0,0,1,5.34-.84c10.79,0,16.73,11.58,16.22,21.2C136.89,39,129.07,48.32,119.84,48.68Z"/><path id="_Path_50" data-name="&lt;Path&gt;" class="cls-36" d="M121.17,8.48a16.43,16.43,0,0,0-5.34.84,18.18,18.18,0,0,0-9.11,7.19,18.45,18.45,0,0,0-1.68,3l-.06.14a24.58,24.58,0,0,0-.17,18.64,10.52,10.52,0,0,1,2.09-6c6.57-6.39,13.76-6.88,16.89-14.39,2.59,6.26,11.21,10.74,13.6,11.84.05-.4,0,.39,0,0C137.9,20.06,132,8.52,121.17,8.48Z"/><path id="_Path_51" data-name="&lt;Path&gt;" class="cls-37" d="M124,38.08a.9.9,0,0,1,.81,1.24c-1.06,2.8-3.26,4.75-5.82,4.81s-4.85-1.8-6-4.55a.91.91,0,0,1,.76-1.28Z"/><g id="_Group_12" data-name="&lt;Group&gt;"><path id="_Path_52" data-name="&lt;Path&gt;" class="cls-38" d="M109.86,28.93c-1.23,0-2.27,1.23-2.32,2.83s.92,2.92,2.16,2.95S112,33.48,112,31.89,111.1,29,109.86,28.93Z"/><path id="_Path_53" data-name="&lt;Path&gt;" class="cls-11" d="M107.58,31.52c0,1.59.91,2.91,2.15,2.95a2.23,2.23,0,0,0,2-1.44c-1.06-1.27-2.11-2.53-3.21-3.76A3.19,3.19,0,0,0,107.58,31.52Z"/><path id="_Path_54" data-name="&lt;Path&gt;" class="cls-38" d="M127.06,28.93c-1.23,0-2.27,1.23-2.31,2.83s.91,2.92,2.15,2.95,2.27-1.23,2.32-2.82S128.3,29,127.06,28.93Z"/><path id="_Path_55" data-name="&lt;Path&gt;" class="cls-11" d="M124.78,31.52c0,1.59.92,2.91,2.15,2.95a2.23,2.23,0,0,0,2-1.44c-1-1.27-2.11-2.53-3.21-3.76A3.19,3.19,0,0,0,124.78,31.52Z"/></g><path id="_Compound_Path_5" data-name="&lt;Compound Path&gt;" class="cls-38" d="M141.31,32.79C139,10.57,127,5.07,123.16,7.2c0,0-3.31-2.9-6.51-1.32a46.15,46.15,0,0,0-8.76,5.8,4.81,4.81,0,0,1-.49.75C104.16,16.63,101,21,100,26.28c.18,2.63-.06,5.38,0,7.73,0,.35,0,.69,0,1a22.11,22.11,0,0,1,3.36,5.07,26.8,26.8,0,0,1,.39-3.27c1.88-12.51,18.8-10.2,19.53-24.83,0,10,11.13,12,16.13,19.48,1.22,1.83,1.45,4.75,2,6.74A31.53,31.53,0,0,0,141.31,32.79Zm-32.54-6.57c2.51-3.76,7.72-5.64,9.6-10C118.37,21.21,111.9,23.09,108.77,26.22Z"/><path id="_Path_56" data-name="&lt;Path&gt;" class="cls-8" d="M129.53,22.47a17.68,17.68,0,0,0,4.71-1.71,22.91,22.91,0,0,0,3.55-2.46,29.06,29.06,0,0,0-2-3.87l-.36.17a21.7,21.7,0,0,1-9,5A24.24,24.24,0,0,0,129.53,22.47Z"/><path id="_Path_57" data-name="&lt;Path&gt;" class="cls-8" d="M112.53,22.22c1-.84,2.11-1.66,3.08-2.57-1-.21-1.89-.45-2.8-.74A36.71,36.71,0,0,1,107.63,17a15.36,15.36,0,0,1-3.24-2.2,31.73,31.73,0,0,0-2.1,2.47A27.09,27.09,0,0,0,112.53,22.22Z"/><path id="_Path_58" data-name="&lt;Path&gt;" class="cls-8" d="M116.92,23A18.75,18.75,0,0,0,120,20.27a27,27,0,0,1-3.24-.39,17.13,17.13,0,0,1-3.17,2.6C114.69,22.72,115.8,22.89,116.92,23Z"/><path id="_Path_59" data-name="&lt;Path&gt;" class="cls-30" d="M140.39,33.87c-.77,2.34-2.74,3.79-4.4,3.24s-2.36-2.88-1.59-5.23,2.74-3.79,4.4-3.24S141.17,31.53,140.39,33.87Z"/><g id="_Group_13" data-name="&lt;Group&gt;"><path id="_Path_60" data-name="&lt;Path&gt;" class="cls-3" d="M73.16,122.77c.49,1.91,5.44,14.73,6.34,19,2.65,12.63,2.11,19.35,2.11,19.35l5.06.47s3.54-25.59,3.74-26.5c.12-.55-3.11-6.19-4.59-14.1C81.12,122.2,77.9,121.82,73.16,122.77Z"/><path id="_Path_61" data-name="&lt;Path&gt;" class="cls-39" d="M91.34,168.66l-2.42,8.23a1.59,1.59,0,0,1-1.87,1.17h0a1.53,1.53,0,0,1-1.17-1.14l-1.16-3.48a.6.6,0,0,1,.24-.62l5.13-3.55C90.53,169,91.48,168.14,91.34,168.66Z"/><path id="_Path_62" data-name="&lt;Path&gt;" class="cls-39" d="M84.08,161.52a113.71,113.71,0,0,1-8.44,8.69c-3.46,3-4.62,2.86-5.12,3.11-2.18,1.09-.92,3.17-.46,3.65a6.17,6.17,0,0,0,3.87,1.92c2.21.17,4.32-.82,6.28-1.71a46,46,0,0,0,6.91-4c.48-.33.95-.66,1.41-1,4.88-3.54,2.32-6.37,1.39-7.62C87.26,161.06,84.08,161.52,84.08,161.52Z"/><g id="_Group_14" data-name="&lt;Group&gt;"><path id="_Path_63" data-name="&lt;Path&gt;" class="cls-3" d="M81.65,158.48c0,3,0,4.13-.38,5.77s-3.31,5.37-5.52,7.6c-.82.83,1.23,2.32,2.24,2.36a4.41,4.41,0,0,0,2.6-1c1.72-1.16,6.36-4.69,7.22-8.11.38-1.53-1.13-1.83-.07-6Z"/></g><path id="_Path_64" data-name="&lt;Path&gt;" class="cls-30" d="M94.75,120.67c-4.11-.08-10-.27-12.25,1,.15,4.23,1,6.15,2.77,13.62a80.44,80.44,0,0,1,1.4,26.33l4.92.47s7.56-21.77,4.33-32.81A23,23,0,0,1,94.75,120.67Z"/><path id="_Path_65" data-name="&lt;Path&gt;" class="cls-40" d="M96.14,168.66l-2.43,8.23a1.58,1.58,0,0,1-1.86,1.17h0a1.54,1.54,0,0,1-1.18-1.14l-1.15-3.48a.58.58,0,0,1,.24-.62l5.13-3.55C95.33,169,96.27,168.14,96.14,168.66Z"/><path id="_Path_66" data-name="&lt;Path&gt;" class="cls-40" d="M88.88,161.52a113.71,113.71,0,0,1-8.44,8.69c-3.47,3-4.62,2.86-5.12,3.11-2.18,1.09-.92,3.17-.46,3.65a6.14,6.14,0,0,0,3.87,1.92c2.21.17,4.32-.82,6.28-1.71a46,46,0,0,0,6.91-4c.48-.33,1-.66,1.41-1,4.88-3.54,2.32-6.37,1.38-7.62C92.05,161.06,88.88,161.52,88.88,161.52Z"/><g id="_Group_15" data-name="&lt;Group&gt;"><path id="_Path_67" data-name="&lt;Path&gt;" class="cls-30" d="M87,158.48a46.26,46.26,0,0,1-.89,5.77c-.4,1.58-3.32,5.37-5.53,7.6-.81.83,1.24,2.32,2.25,2.36a4.43,4.43,0,0,0,2.6-1c1.71-1.16,6.36-4.69,7.21-8.11.39-1.53-1.12-1.83-.06-6Z"/></g></g><path id="_Path_68" data-name="&lt;Path&gt;" class="cls-11" d="M130.34,173.31h35.1a1.3,1.3,0,0,0,1.3-1.3h0a1.3,1.3,0,0,0-1.3-1.3h-35.1A1.3,1.3,0,0,0,129,172h0A1.31,1.31,0,0,0,130.34,173.31Z"/><path id="_Path_69" data-name="&lt;Path&gt;" class="cls-19" d="M148.28,135.28s12.13,2.1,18.73,19.36a5.69,5.69,0,0,1-5.32,7.71h-23S136,184,102,183.79l-33.92-.19s-.4-17.15-11.9-30.42a30.68,30.68,0,0,0-5.38-5,5,5,0,0,1-1.65-6.06c3.37-7.74,10.7-23.87,16-30.42A7.44,7.44,0,0,1,71,108.93h3.8a5,5,0,0,1,4.64,6.74c-3.85,10-10.26,28.68-8.59,38.1a166.08,166.08,0,0,0,6.24,24.17h23.25a5.33,5.33,0,0,0,5.28-6.06c-1.29-9.22-3.27-26.2-1.24-31,1.91-4.48,3.9-4.48,3.9-4.48Z"/><path id="_Path_70" data-name="&lt;Path&gt;" class="cls-1" d="M103.55,150.53c-.13-4.24.06-7.82.83-9.63,1.91-4.48,3.9-4.48,3.9-4.48l40-1.14a18.81,18.81,0,0,1,6.22,2.77C137.47,142,120.53,146.36,103.55,150.53Z"/><path id="_Path_71" data-name="&lt;Path&gt;" class="cls-11" d="M103.54,146.33a12.16,12.16,0,0,1,1.57-6.94h51.27a29.91,29.91,0,0,1,6.36,6.94Z"/><path id="_Path_72" data-name="&lt;Path&gt;" class="cls-11" d="M76.59,109.26A5,5,0,0,1,78.8,111l-.38.7c-4.26,6.36-8,13.22-9.64,20.72C64.57,151.63,73,178.07,73,178.07l54.17-.1a32.93,32.93,0,0,1-3.71,1.95H69.59C58.8,141.56,64.7,119.43,76.59,109.26Z"/><path id="_Path_73" data-name="&lt;Path&gt;" class="cls-41" d="M103.38,131.86c0-4.12,3.64-8.13,7.63-8.13,2.85,0,35.08-.83,35.08-.83a7,7,0,1,1,0,13.91H126.32c-3.37,0-14,.17-17.32,0C103.65,136.63,103.38,134.78,103.38,131.86Z"/><ellipse id="_Path_74" data-name="&lt;Path&gt;" class="cls-42" cx="54.22" cy="96.05" rx="6.74" ry="8.99"/><path id="_Path_75" data-name="&lt;Path&gt;" class="cls-11" d="M45.51,96.05c0,6,4.9,10.79,8.71,10.79,4.47,0,8.1-4.83,8.1-10.79s-3.63-10.79-8.1-10.79C52,85.26,45.51,88.33,45.51,96.05Z"/><path id="_Path_76" data-name="&lt;Path&gt;" class="cls-43" d="M54.22,87.06a5.68,5.68,0,0,1,1.09.12c-3.21.7-5.66,4.4-5.66,8.87s2.45,8.17,5.66,8.87a5.68,5.68,0,0,1-1.09.12c-3.72,0-6.74-4-6.74-9S50.5,87.06,54.22,87.06Z"/><path id="_Path_77" data-name="&lt;Path&gt;" class="cls-44" d="M48.83,96.05c0,4,2.41,7.19,5.39,7.19s5.4-3.22,5.4-7.19-2.42-7.2-5.4-7.2S48.83,92.08,48.83,96.05Z"/><path id="_Path_78" data-name="&lt;Path&gt;" class="cls-37" d="M49.37,96.05c0,3.58,2.17,6.47,4.85,6.47s4.86-2.89,4.86-6.47-2.17-6.48-4.86-6.48S49.37,92.47,49.37,96.05Z"/><path id="_Path_79" data-name="&lt;Path&gt;" class="cls-1" d="M123.63,12.62,118,12.41a13.6,13.6,0,0,0-14,13.07l-.37,10.22a13.52,13.52,0,0,0,2.16,7.81c-.06-.69-.11-1.4-.15-2.12-2.15-4.72-1.82-11.26,1.5-15.15,3.52-4.14,9.49-4.95,14.58-4.29,6.09.79,11,4.71,12.3,10.83a16.41,16.41,0,0,1-1.58,11.06,1.66,1.66,0,0,0,1,1,13.48,13.48,0,0,0,3-7.94l.36-10.22A13.59,13.59,0,0,0,123.63,12.62Z"/><path id="_Path_80" data-name="&lt;Path&gt;" class="cls-45" d="M49.78,98.65a8.43,8.43,0,0,1-.41-2.6,8.27,8.27,0,0,1,.16-1.6c3.16.94,6.3,1.92,9.45,2.9a7.18,7.18,0,0,1-1.43,3.41C55,100,52.39,99.28,49.78,98.65Z"/><path id="_Path_81" data-name="&lt;Path&gt;" class="cls-19" d="M19.85,156.69c-2.19-.72-6-2.51-3-4.88,6.39-4.93,13.44-8.41,21.29-7.6,10.82,1.11,19.65,9.06,24,20.08a6.38,6.38,0,0,1-5.9,8.75c-2.45,0-4.34-1.61-5.74-3.62C39.17,153.15,24.76,158.3,19.85,156.69Z"/><path id="_Path_82" data-name="&lt;Path&gt;" class="cls-11" d="M31,153.48c3.84-3,8.06-5,12.77-4.56,6.5.66,11.79,5.43,14.38,12.05a3.82,3.82,0,0,1-3.54,5.24A4.31,4.31,0,0,1,51.19,164C44.39,154.28,29.19,154.9,31,153.48Z"/><path id="_Path_83" data-name="&lt;Path&gt;" class="cls-18" d="M37.4,146.54c-6.64,1.18-13.11,4.92-18.37,9.86-2.17-.86-4.84-2.49-2.14-4.59,6.39-4.93,13.44-8.41,21.29-7.6a25.68,25.68,0,0,1,10.3,3.38A20.94,20.94,0,0,0,37.4,146.54Z"/><path id="_Path_84" data-name="&lt;Path&gt;" class="cls-16" d="M84.46,96.05c0,1.79.94,3.25,2.11,3.25s2.11-1.46,2.11-3.25-.94-3.25-2.11-3.25S84.46,94.25,84.46,96.05Z"/><path id="_Path_85" data-name="&lt;Path&gt;" class="cls-16" d="M83,96.05c0,1.79,1,3.25,2.12,3.25s2.11-1.46,2.11-3.25-1-3.25-2.11-3.25S83,94.25,83,96.05Z"/><rect id="_Rectangle_4" data-name="&lt;Rectangle&gt;" class="cls-16" x="85.11" y="92.8" width="1.46" height="6.5" transform="translate(171.68 192.1) rotate(180)"/><path id="_Compound_Path_6" data-name="&lt;Compound Path&gt;" class="cls-1" d="M104.05,158.46v.07a4.31,4.31,0,0,0,4,3.82h53.61a8.52,8.52,0,0,0,3-.84,5.68,5.68,0,0,0,2.36-6.87c-.06-.14-.11-.27-.16-.4H107.9A3.87,3.87,0,0,0,104.05,158.46Zm9.61,1.07a.8.8,0,0,1,.81-.8h12.79a.81.81,0,1,1,0,1.61H114.47A.81.81,0,0,1,113.66,159.53Zm0-3a.81.81,0,0,1,.81-.81h12.79a.81.81,0,0,1,0,1.62H114.47A.81.81,0,0,1,113.66,156.56Z"/><path id="_Path_86" data-name="&lt;Path&gt;" class="cls-11" d="M43.07,140.64c1,.14,2.44-.65,3.44-2.48l12.38-24.39c.51-1,0-2.6-1.27-2.63-1.44,0-2.65,1.75-3.23,2.9L42.18,138.1C41.63,139.18,41.44,140.42,43.07,140.64Z"/><path id="_Path_87" data-name="&lt;Path&gt;" class="cls-46" d="M138.59,45.35s-3.9-1.23-4.05-5.14c0-.89,0-8.73.42-15.19a4.65,4.65,0,0,0-4.33-4.92c-5.29-.35-14-.9-19.58-1.25a5.83,5.83,0,0,0-6,5.33l-.93,14.93a5.09,5.09,0,0,1-3.22,4.5,3.1,3.1,0,0,1-.93.2c-1.83.08,2.42-27.92,2.73-28.06S132.67,18,132.67,18s7.85,8.58,8,9.81S138.59,45.35,138.59,45.35Z"/><path id="_Path_88" data-name="&lt;Path&gt;" class="cls-19" d="M129.68,20.19l-19.53-.78a8.15,8.15,0,0,0-8.47,7.81l-.61,15.5a1.14,1.14,0,0,1-2.17.43c-1.84-4.27-1.27-9.33-1.1-13.87.23-6.5-.11-14.06,3.28-19.88,6.27-10.75,21.76-11.54,31.86-6.1a19.23,19.23,0,0,1,7.21,6.75c2.08,3.33,2.53,7.14,2.83,11a68.52,68.52,0,0,1-.42,13.88c-.26,2.08-.64,4.15-.92,6.23-.19,1.41-.38,3.33-1.77,4.11a1.53,1.53,0,0,1-2.26-1.38l.58-14.47A8.87,8.87,0,0,0,129.68,20.19Z"/><path class="cls-11" d="M101.89,13.08a31.69,31.69,0,0,0,10-1.42,33.13,33.13,0,0,0,9.75-4.47,33.76,33.76,0,0,0,6.52-5.89c-9.69-3-21.71-1-27,8.1A18.17,18.17,0,0,0,99.49,13C100.28,13.05,101.08,13.08,101.89,13.08Z"/><path id="_Path_89" data-name="&lt;Path&gt;" class="cls-47" d="M98,22c-.14,2.49-.16,5-.24,7.33-.17,4.54-.74,9.6,1.1,13.87a1.14,1.14,0,0,0,2.17-.43l.61-15.5a8.12,8.12,0,0,1,2.47-5.51A53.81,53.81,0,0,1,98,22Z"/><path id="_Path_90" data-name="&lt;Path&gt;" class="cls-47" d="M143,21c-.3-3.85-.75-7.66-2.83-11a19.14,19.14,0,0,0-4.56-5c-2.74,7.75-11.74,12.36-19.77,14.61l13.86.55a8.87,8.87,0,0,1,8.51,9.22l-.58,14.47a1.53,1.53,0,0,0,2.26,1.38c1.39-.78,1.58-2.7,1.77-4.11.28-2.08.66-4.15.92-6.23A68.52,68.52,0,0,0,143,21Z"/><g id="_Group_16" data-name="&lt;Group&gt;"><path id="_Path_91" data-name="&lt;Path&gt;" class="cls-48" d="M137.87,45.17a1.12,1.12,0,0,0,1.5.43l.32-.18c.24-.17.38-.35.22-.6a7.34,7.34,0,0,1-1.2-3c.1-1.16.17-3,.25-5.24.1-2.46.2-5.25.38-7.78a6.63,6.63,0,0,0-2-5c-3.24-3.45-10-5.42-18.47-5.38-12.85.05-17.26,2.31-18.2,9.31-.32,2.4-.41,4.9-.49,7.32a41.64,41.64,0,0,1-.85,7.62c-.18.69-.3,1.08.92,1.54h0c.3.15.75-.18.87-.5.77-2,.88-5.1,1-8.59.08-2.37.17-4.82.48-7.14.69-5.22,3.21-7.57,16.27-7.61,8,0,14.17,1.7,17,4.76a4.76,4.76,0,0,1,1.45,3.57c-.18,2.55-.28,5.36-.37,7.84-.09,2.16-.16,4-.25,5.14A6.81,6.81,0,0,0,137.87,45.17Z"/></g><path id="_Path_92" data-name="&lt;Path&gt;" class="cls-48" d="M137.18,43.76s-12.49,5.1-19.37,4.68-16.43-5.53-16.43-5.53L100,44.06a46.92,46.92,0,0,0,18.78,6.63c9.43,1.07,20.29-5,20.29-5Z"/><g id="_Group_17" data-name="&lt;Group&gt;"><path id="_Path_93" data-name="&lt;Path&gt;" class="cls-49" d="M164.2,98.4a.64.64,0,0,1-.84-.26c-2-3.47-9.21-11-23.59-12-15-1-23.12-8.85-25.54-15.27a22.63,22.63,0,0,1,.67-18.51.64.64,0,0,1,.92-.24h0a.66.66,0,0,1,.23.85,21.67,21.67,0,0,0-.62,17.44c2.29,6.06,10,13.47,24.42,14.43,14.91,1,22.49,9,24.63,12.67a.64.64,0,0,1-.29.9Z"/></g><g id="_Group_18" data-name="&lt;Group&gt;"><path id="_Path_94" data-name="&lt;Path&gt;" class="cls-37" d="M70.36,121.72h0a.89.89,0,0,0,.88-.88v-7.65a.89.89,0,0,0-.88-.88h0a.89.89,0,0,0-.89.88v7.65A.89.89,0,0,0,70.36,121.72Z"/><path id="_Path_95" data-name="&lt;Path&gt;" class="cls-37" d="M75.06,117h0a.88.88,0,0,0-.88-.88H66.53a.89.89,0,0,0-.88.88h0a.89.89,0,0,0,.88.89h7.65A.88.88,0,0,0,75.06,117Z"/></g><path id="_Path_96" data-name="&lt;Path&gt;" class="cls-37" d="M63.8,126.07a1.89,1.89,0,1,0,1.88-1.89A1.88,1.88,0,0,0,63.8,126.07Z"/><path class="cls-50" d="M133.23,71.21h0s.82-.31,2-.86c.2-.83.41-1.65.62-2.48a48.2,48.2,0,0,0,1.53-7.33,10.22,10.22,0,0,0-.34-3.64c-6.15-3-8.39,4.21-8.86,6.66a32.22,32.22,0,0,0-.2,3.83c-3.83,6.4-9.19,13.62-14.61,16.15l-6.35,3c0,.54-.12,1.11-.2,1.71a1.39,1.39,0,0,0,.39.22l-.39,0s-.56,2.59-1,5.62c3.07-1.34,6.49-2.87,10.31-4.66C123,86.21,129.12,78,133.23,71.21Z"/><g id="_Group_19" data-name="&lt;Group&gt;"><path id="_Path_97" data-name="&lt;Path&gt;" class="cls-30" d="M89.48,92.51h0a3.77,3.77,0,0,1,1.75-4.67c4.72-2,11.54-5.25,19.69-9,7.38-3.44,14.65-15.6,18.09-22.5a3.24,3.24,0,0,1,4.21-1.51h0a3.24,3.24,0,0,1,1.6,4.42c-3.22,6.42-11.34,20.91-21.16,25.48-8.25,3.84-14.71,6.58-19.48,8.57C92.52,94,90.16,94.18,89.48,92.51Z"/></g><g id="_Group_20" data-name="&lt;Group&gt;"><path id="_Path_98" data-name="&lt;Path&gt;" class="cls-18" d="M102.28,82.63c-.59.27-1.24.53-1.82.79a.17.17,0,0,0,0,.31,5.25,5.25,0,0,1,2.8,1.79,6.36,6.36,0,0,1,1.1,3.33.24.24,0,0,0,.33.19l1.38-.57a.61.61,0,0,0,.38-.57,5.69,5.69,0,0,0-3.57-5.3A.89.89,0,0,0,102.28,82.63Z"/></g><path id="_Path_99" data-name="&lt;Path&gt;" class="cls-30" d="M91.23,87.84S84.87,90.93,84.87,96c0,1.3-.34,3,.67,4.08a1.74,1.74,0,0,0,2.31.18,2,2,0,0,0,3,.19,2.21,2.21,0,0,0,3.19.21,3.66,3.66,0,0,0,1,.43,2,2,0,0,0,1.24-.2,6.46,6.46,0,0,0,1.54-1.23,5.5,5.5,0,0,0,1.13-4.86,3.85,3.85,0,0,1,1.42-4.1Z"/><path id="_Path_100" data-name="&lt;Path&gt;" class="cls-4" d="M95,97.13A9.72,9.72,0,0,0,94,96.76c-.33,0-.74.39-1.08.47a2.36,2.36,0,0,1-2.16-.61,1.9,1.9,0,0,1-2.83,0c-1.33,1.07-2.28.46-3-.45,0,1.28-.3,2.94.67,3.93a1.74,1.74,0,0,0,2.31.18,2,2,0,0,0,3,.19,2.21,2.21,0,0,0,3.19.21,3.66,3.66,0,0,0,1,.43,2,2,0,0,0,1.24-.2,6.46,6.46,0,0,0,1.54-1.23,5.35,5.35,0,0,0,1.25-4.06A3.93,3.93,0,0,1,95,97.13Z"/><path id="_Path_101" data-name="&lt;Path&gt;" class="cls-16" d="M99,95.89c0,1.52-.85,2.76-1.89,2.76s-1.89-1.24-1.89-2.76.84-2.76,1.89-2.76S99,94.37,99,95.89Z"/><rect id="_Rectangle_5" data-name="&lt;Rectangle&gt;" class="cls-16" x="97.14" y="93.13" width="2.13" height="5.52"/><ellipse id="_Path_102" data-name="&lt;Path&gt;" class="cls-51" cx="99.09" cy="95.89" rx="1.89" ry="2.76"/><g id="_Group_21" data-name="&lt;Group&gt;"><rect id="_Rectangle_6" data-name="&lt;Rectangle&gt;" class="cls-12" x="104.53" y="69.98" width="1.26" height="11.3" transform="translate(210.32 151.25) rotate(180)"/><path id="_Path_103" data-name="&lt;Path&gt;" class="cls-12" d="M102.27,75.63c0,3.12,1.58,5.65,3.52,5.65s3.51-2.53,3.51-5.65S107.73,70,105.79,70,102.27,72.51,102.27,75.63Z"/><path id="_Path_104" data-name="&lt;Path&gt;" class="cls-13" d="M104,70.75c1.26.11,2.52.2,3.78.25a7.07,7.07,0,0,1,1.5,4.63,8.08,8.08,0,0,1-.61,3.18c-1.83.13-3.65.39-5.46.68a7.76,7.76,0,0,1-1-3.86A6.78,6.78,0,0,1,104,70.75Z"/><path id="_Path_105" data-name="&lt;Path&gt;" class="cls-14" d="M101,75.63c0,3.12,1.58,5.65,3.52,5.65S108,78.75,108,75.63,106.47,70,104.53,70,101,72.51,101,75.63Z"/><path id="_Path_106" data-name="&lt;Path&gt;" class="cls-13" d="M104.49,76.2c-.78-1.18-2.19-3.65-1.66-5a3.67,3.67,0,0,0,.16-.61,2.53,2.53,0,0,1,1.54-.57c1.94,0,3.51,2.53,3.51,5.65a8.11,8.11,0,0,1-.65,3.27A6.75,6.75,0,0,1,104.49,76.2Z"/><g id="_Group_22" data-name="&lt;Group&gt;"><path id="_Path_107" data-name="&lt;Path&gt;" class="cls-15" d="M83.07,96.31h0a.65.65,0,0,0,.65-.65V94.27a9.32,9.32,0,0,1,3.69-7.41l12.88-9.71a3.31,3.31,0,0,1,2-.67h1.6a.65.65,0,0,0,.65-.65h0a.65.65,0,0,0-.65-.65h-1.39a5.23,5.23,0,0,0-3.16,1.06L86.89,85.63a11.23,11.23,0,0,0-4.47,9v1.07A.65.65,0,0,0,83.07,96.31Z"/></g></g><path id="_Path_108" data-name="&lt;Path&gt;" class="cls-52" d="M121.9,52s11.79-7.14,24.79-.07A23.37,23.37,0,0,1,129.94,55C120.12,53.22,121.9,52,121.9,52Z"/><path id="_Path_109" data-name="&lt;Path&gt;" class="cls-53" d="M116.86,50.05l-.22,2.61a5.44,5.44,0,0,0,3.43,1.25A4.91,4.91,0,0,0,124,52.3V50.05A16.19,16.19,0,0,1,116.86,50.05Z"/><path id="_Path_110" data-name="&lt;Path&gt;" class="cls-53" d="M123.12,50.74s8-8.13,22.84-4.79c0,0-4.67,8.57-23,6.78Z"/><path id="_Path_111" data-name="&lt;Path&gt;" class="cls-35" d="M125.72,58.81c.52-2.71,3.21-11.24,11-5.32,9.54,7.26-5.88,13-5.88,13a3.14,3.14,0,0,0-1.32-3.82,3.64,3.64,0,0,0-4,0A32,32,0,0,1,125.72,58.81Z"/><path id="_Path_112" data-name="&lt;Path&gt;" class="cls-54" d="M105.14,83.65c0,.47-1,.85-2.14.85s-2.14-.38-2.14-.85,1-.85,2.14-.85S105.14,83.18,105.14,83.65Z"/><polygon id="_Path_113" data-name="&lt;Path&gt;" class="cls-54" points="105.14 83.65 100.86 83.65 100.86 83 105.13 82.96 105.14 83.65"/><path id="_Path_114" data-name="&lt;Path&gt;" class="cls-55" d="M105.14,83c0,.47-1,.85-2.14.85s-2.14-.38-2.14-.85,1-.85,2.14-.85S105.14,82.53,105.14,83Z"/><path id="_Path_115" data-name="&lt;Path&gt;" class="cls-56" d="M104.5,83c0,.33-.68.59-1.5.59s-1.5-.26-1.5-.59.67-.6,1.5-.6S104.5,82.67,104.5,83Z"/><g id="_Group_23" data-name="&lt;Group&gt;"><path id="_Path_116" data-name="&lt;Path&gt;" class="cls-57" d="M182.66,109.48l-12.33,2.83a5.63,5.63,0,0,1-6.72-4.21l-2.07-9a5.63,5.63,0,0,1,4.21-6.73l12.33-2.83a5.62,5.62,0,0,1,6.72,4.21l1.49,6.49.59,2.53A5.64,5.64,0,0,1,182.66,109.48Z"/><path id="_Path_117" data-name="&lt;Path&gt;" class="cls-58" d="M165.48,111.06a5.71,5.71,0,0,0,5,1.23l12.14-2.79a5.72,5.72,0,0,0,4.36-4.76A135.59,135.59,0,0,1,165.48,111.06Z"/><path id="_Path_118" data-name="&lt;Path&gt;" class="cls-59" d="M169.14,112.58h0a4.91,4.91,0,0,1-5.87-3.67l-2.39-10.42a4.9,4.9,0,0,1,3.68-5.86h0a4.9,4.9,0,0,1,5.86,3.67l2.39,10.42A4.9,4.9,0,0,1,169.14,112.58Z"/><path id="_Path_119" data-name="&lt;Path&gt;" class="cls-47" d="M184.83,93.83A5.74,5.74,0,0,0,178,89.54l-12.14,2.79a5.53,5.53,0,0,0-.66.2,4.22,4.22,0,0,0-.62.1,4.81,4.81,0,0,0-2.65,1.63,6.24,6.24,0,0,1,5.9,1.94c1.34,1.35,2,3.28,3.68,4.33a6.79,6.79,0,0,0,1.73.74,14.36,14.36,0,0,0,6.73-.54,21.4,21.4,0,0,0,5.87-2.56Z"/><path id="_Path_120" data-name="&lt;Path&gt;" class="cls-47" d="M181.57,109.68l-.06-.18c-.65.24-1.29.46-1.88.66l0,0,1.27-.29Z"/><path id="_Path_121" data-name="&lt;Path&gt;" class="cls-60" d="M170,97.59c1.5,3.33,4.64,2.79,7.81,2.13,2.22-.46,5.67-1.44,7.55-3.12a1.42,1.42,0,0,0,.42-1.39l-.21-.9A6.38,6.38,0,0,0,178,89.54l-12.14,2.79a9.83,9.83,0,0,0-2.86,1l.32,0C166.31,93.06,168.7,94.65,170,97.59Z"/><path id="_Path_122" data-name="&lt;Path&gt;" class="cls-61" d="M168.37,95.14q7.26-2.4,14.55-4.67a6.55,6.55,0,0,0-2-.9c-4.08.81-8.1,2-12.09,3l-3.34.88A6.12,6.12,0,0,1,168.37,95.14Z"/><path id="_Path_123" data-name="&lt;Path&gt;" class="cls-62" d="M181,97.52a1,1,0,1,1-1.22-.76A1,1,0,0,1,181,97.52Z"/><path id="_Path_124" data-name="&lt;Path&gt;" class="cls-47" d="M180.91,97.74c-.76.53-1.31-.34-1.19-.95a1,1,0,1,0,1.32.83A.49.49,0,0,1,180.91,97.74Z"/></g><path id="_Path_125" data-name="&lt;Path&gt;" class="cls-63" d="M165.27,98.9l-1.46.29a1.08,1.08,0,0,1-1.26-.84h0a1.08,1.08,0,0,1,.84-1.26l1.46-.29a1.07,1.07,0,0,1,1.26.84h0A1.08,1.08,0,0,1,165.27,98.9Z"/><path id="_Path_126" data-name="&lt;Path&gt;" class="cls-57" d="M164.73,99l-1.28.26a1.07,1.07,0,0,1-1.25-.84h0a1.07,1.07,0,0,1,.83-1.26l1.27-.26a1.07,1.07,0,0,1,1.26.84h0A1.07,1.07,0,0,1,164.73,99Z"/><g id="_Group_24" data-name="&lt;Group&gt;"><path id="_Path_127" data-name="&lt;Path&gt;" class="cls-49" d="M164.49,97.5a23.65,23.65,0,0,0-7.77-7.5,2.93,2.93,0,0,1-.62,1.12,22,22,0,0,1,7.26,7,.65.65,0,0,0,1.13-.64Z"/></g><path id="_Path_128" data-name="&lt;Path&gt;" class="cls-64" d="M117.81,48.44s-5.89.48-6.24,4.29l3.23.23s.15-2.5,4.54-2.51Z"/></g></g></svg>