<svg xmlns="http://www.w3.org/2000/svg" viewBox="0 0 191.3 207.37"><defs><style>.cls-1,.cls-18{opacity:0.1;}.cls-2{fill:#6b6b6b;}.cls-3{fill:#ccbc9b;}.cls-4{fill:#f4a68c;}.cls-5{fill:#342a35;}.cls-6,.cls-7{fill:#f0e9e8;}.cls-7{stroke:#f0e9e8;stroke-miterlimit:10;stroke-width:0.5px;}.cls-8{fill:#563450;}.cls-9{fill:#745677;}.cls-10{fill:#7c3973;}.cls-11{fill:#382a27;}.cls-12{fill:#513226;}.cls-13{fill:#463430;}.cls-14,.cls-18,.cls-20,.cls-24{fill:#fff;}.cls-14,.cls-16{opacity:0.05;}.cls-15{fill:#92817f;}.cls-17{fill:#503b36;}.cls-19{fill:#cec1c0;}.cls-20,.cls-27{opacity:0.07;}.cls-21{fill:#d8d84c;}.cls-22{fill:#555050;}.cls-23{fill:#d7937f;}.cls-25{fill:#4c3131;}.cls-26{fill:#89427c;}.cls-28{fill:#adb2bc;}.cls-29{fill:#282828;}.cls-30{fill:#3f3f3f;}.cls-31{fill:#6a7275;}.cls-32{fill:#808a8c;}.cls-33{fill:#4b5859;}.cls-34{fill:#d8c9a7;}.cls-35{fill:#606060;}</style></defs><title>Asset 2</title><g id="Layer_2" data-name="Layer 2"><g id="_ÎÓÈ_1" data-name="—ÎÓÈ_1"><path class="cls-1" d="M173.1,201.56a651.07,651.07,0,0,1-86.55,5.81A651.07,651.07,0,0,1,0,201.56a647.56,647.56,0,0,1,173.1,0Z"/><path class="cls-2" d="M113.37,177.27c-.32-.56-.64-.32-1.2,0l-8.71,4.31a22.51,22.51,0,0,1-11.13,2.95H56.49l-14.16-7.88a52.19,52.19,0,0,0-11.72-1.91c-6,0-9.6,2.18-9.78,2.53a1.17,1.17,0,0,0,.48,1.58l11.05,5.84a18.8,18.8,0,0,0,8.78,2.17H92.33a24.81,24.81,0,0,0,12.28-3.25l8.33-4.75A1.17,1.17,0,0,0,113.37,177.27Z"/><path class="cls-3" d="M21.31,178.85l.4.21a19.47,19.47,0,0,1,8.9-1.92,52.19,52.19,0,0,1,11.72,1.91L61,186.86H92.33a24.6,24.6,0,0,0,5.42-.6,22.5,22.5,0,0,0,5.71-2.28l8.32-4.75a1.14,1.14,0,0,1,.74-.13l.42-.24c.55-.32,1.88-.74,1.56-1.3s-1.1-.41-1.72-.22a2.31,2.31,0,0,0-.41.17l-8.91,4.07a22.51,22.51,0,0,1-11.13,2.95H56.49l-14.16-7.88a52.19,52.19,0,0,0-11.72-1.91c-6,0-9.6,2.18-9.78,2.53A1.17,1.17,0,0,0,21.31,178.85Z"/><path class="cls-2" d="M126,174.74c-7.3-.41-9.71.67-13,2.08l-9.54,4.76a22.51,22.51,0,0,1-11.13,2.95H60.49v2.33H92.33c.42,0,.83,0,1.24,0l.33,0,1-.09.25,0c.85-.1,1.68-.24,2.51-.42l.1,0,.07,0a24.1,24.1,0,0,0,2.39-.66l17.31-.24c.14,0,15.52-8.63,15.52-8.63S131.58,175.06,126,174.74Z"/><path class="cls-2" d="M126,174.74c-7.3-.41-9.71.67-13,2.08l-9.54,4.76a22.51,22.51,0,0,1-11.13,2.95H60.49v2.33H92.33c.42,0,.83,0,1.24,0l.33,0,1-.09.25,0c.85-.1,1.68-.24,2.51-.42l.1,0,.07,0a24.1,24.1,0,0,0,2.39-.66l17.31-.24c.14,0,15.52-8.63,15.52-8.63S131.58,175.06,126,174.74Z"/><path class="cls-2" d="M126,174.74c-7.3-.41-9.71.67-13,2.08l-9.54,4.76a22.51,22.51,0,0,1-11.13,2.95H60.49v2.33H92.33c.42,0,.83,0,1.24,0l.33,0,1-.09.25,0c.85-.1,1.68-.24,2.51-.42l.1,0,.07,0a24.1,24.1,0,0,0,2.39-.66l17.31-.24c.14,0,15.52-8.63,15.52-8.63S131.58,175.06,126,174.74Z"/><polygon id="_Path_" data-name="&lt;Path&gt;" class="cls-4" points="66.56 161.46 68.36 172.66 76.09 172 73.95 160.09 66.56 161.46"/><path class="cls-1" d="M70.44,168.26c1.62-.19,3.26-.28,4.9-.42L74,160.09l-7.39,1.37,1.15,7.15Z"/><path class="cls-2" d="M126,174.74c-7.3-.41-9.71.67-13,2.08l-9.54,4.76a22.51,22.51,0,0,1-11.13,2.95H60.49v2.33H92.33c.42,0,.83,0,1.24,0l.33,0,1-.09.25,0c.85-.1,1.68-.24,2.51-.42l.1,0,.07,0a24.1,24.1,0,0,0,2.39-.66l17.31-.24c.14,0,15.52-8.63,15.52-8.63S131.58,175.06,126,174.74Z"/><polygon id="_Path_2" data-name="&lt;Path&gt;" class="cls-4" points="96.14 162.78 96.83 173.75 105.23 173.19 102.44 160.81 96.14 162.78"/><path class="cls-1" d="M100.58,168.46c1.18-.07,2.37-.11,3.55-.12l-1.69-7.53-6.3,2,.37,5.88C97.88,168.57,99.26,168.53,100.58,168.46Z"/><path id="_Path_3" data-name="&lt;Path&gt;" class="cls-5" d="M75.9,170.11c-5.32,1.89-8,.41-8,.41-1.72,1.47-6,7.11-14.17,7.4-1.8.06-5.74.42-5.79,3.09l0,1.19a2,2,0,0,0,1.42,2c2.31.71,7.18,2.33,12.06.75a12.27,12.27,0,0,1,7.39-.43,6.66,6.66,0,0,0,1.54.16l6.78-.19a1.13,1.13,0,0,0,1.1-1C78.53,180.59,79.52,172.08,75.9,170.11Z"/><path id="_Path_4" data-name="&lt;Path&gt;" class="cls-6" d="M67.85,174.3a12.73,12.73,0,0,0-2-2.1c-3.08,1.82-5.9,3.44-9.8,5.44A4.14,4.14,0,0,0,61,180.1a12.22,12.22,0,0,0,5.09-2.41C67,177,68.42,175.74,67.85,174.3Z"/><path id="_Path_5" data-name="&lt;Path&gt;" class="cls-7" d="M68.16,183.25c-4.18.44-13.37.42-13.53.18a1.27,1.27,0,0,1-.36-.72A12.24,12.24,0,0,0,52.45,178c-1.93.21-4.48.87-4.52,3l0,1.19a2,2,0,0,0,1.42,2c2.31.71,7.16,2.27,12.06.75s6.39-.64,7.39-.43a6.66,6.66,0,0,0,1.54.16l6.78-.19a1.13,1.13,0,0,0,1.1-1c0-.4.1-.92.15-1.51l-1.23.15C74.16,182.68,71.22,182.92,68.16,183.25Z"/><path id="_Path_6" data-name="&lt;Path&gt;" class="cls-5" d="M104.7,170.83c-5.32,1.89-8,.41-8,.41-1.72,1.48-6,7.11-14.17,7.4-1.8.06-5.74.42-5.8,3.1l0,1.19a2,2,0,0,0,1.42,2c2.31.71,7.18,2.32,12.06.74a12.15,12.15,0,0,1,7.39-.42,6.65,6.65,0,0,0,1.54.15l6.78-.19a1.12,1.12,0,0,0,1.1-1C107.33,181.31,108.32,172.8,104.7,170.83Z"/><path id="_Path_7" data-name="&lt;Path&gt;" class="cls-6" d="M96.65,175a12.69,12.69,0,0,0-2-2.09c-3.08,1.82-5.9,3.43-9.8,5.44a4.14,4.14,0,0,0,4.91,2.45,12.22,12.22,0,0,0,5.09-2.41C95.82,177.7,97.22,176.46,96.65,175Z"/><path id="_Path_8" data-name="&lt;Path&gt;" class="cls-7" d="M97,184c-4.18.45-13.37.42-13.53.18a1.21,1.21,0,0,1-.36-.72,12.13,12.13,0,0,0-1.82-4.7c-1.93.2-4.48.86-4.53,3l0,1.19a2,2,0,0,0,1.42,2c2.31.71,7.16,2.26,12.06.74s6.39-.64,7.39-.42a6.65,6.65,0,0,0,1.54.15l6.78-.19a1.12,1.12,0,0,0,1.1-1c.05-.4.1-.92.15-1.5l-1.23.14C103,183.4,100,183.65,97,184Z"/><path class="cls-8" d="M67.4,167.77c-11.2-41.05,9-65.49,9.89-66.58l7.86,6.52-3.93-3.26,3.94,3.24a64.39,64.39,0,0,0-8.25,15.8c-4.63,13.16-4,26.85-1.65,42.08Z"/><path class="cls-8" d="M95.88,166.34c-6.45-37.17,3.13-56.64,3.48-57.65L109,112l-4.83-1.67L109,112c-.08.23-6.34,18.76-5,53.35Z"/><g class="cls-1"><path d="M74.68,131.83a23.53,23.53,0,0,1-9.76,7.59c-.26.1-.53.2-.81.29a90.2,90.2,0,0,0,3.29,28.06l7.86-2.2C73.41,153.53,72.63,142.45,74.68,131.83Z"/></g><g class="cls-1"><path d="M105.42,129.71a26.65,26.65,0,0,1-5.34,7.33c-1.69,1.61-4,3.06-6.4,2.59a141.89,141.89,0,0,0,2.2,26.71l8.11-1A212.75,212.75,0,0,1,105.42,129.71Z"/></g><polygon class="cls-9" points="65.94 164.29 66.93 167.77 75.73 166.54 75.23 160.19 65.52 163.02 65.94 164.29"/><polygon class="cls-9" points="94.37 160.89 95.58 166.74 104.37 166 104.8 159.47 94.37 160.89"/><path class="cls-8" d="M78.44,93.81a63.79,63.79,0,0,0-3.18,13.38s22.49,7.52,32.7,7.9c0,0,4-8.42,4.92-11.87S78.44,93.81,78.44,93.81Z"/><path class="cls-1" d="M80.37,102.57a81.53,81.53,0,0,0,11.77,7.56A52,52,0,0,0,106,115c.68.07,1.32.11,1.92.14,0,0,4-8.42,4.92-11.87s-34.44-9.41-34.44-9.41a55.79,55.79,0,0,0-1.68,5.52C78,100.41,79.09,101.58,80.37,102.57Z"/><path class="cls-10" d="M81.51,17.7s20.9,15.74,40.69,19.35S117.45,25,117.45,25Z"/><path class="cls-11" d="M80.39,68.68s-1.87-.52-2.56.74-3.76,16.07-2.08,17.52a4,4,0,0,0,3.5.94Z"/><path class="cls-12" d="M80.13,25.38s-7-3.53-6.2,2.66,4.93,1.3,4.93,1.3-7.11,3.3-4.33,5.86a3,3,0,0,0,4.79-.4s-3.09,6.41.58,6.9,4.48-4.13,4.48-4.13-3.61,6.3-.12,6.43,3.41-4,3.41-4l24.57-2.06s-5.42,4.78-2.17,6,3.67-2.35,3.67-2.35-1.13,3.39,3.73,2.08-.47-5.55-.47-5.55,4.38,2.58,6,0-4.76-5.72-4.76-5.72,5.23,2.5,5.61-1.31-5-1.29-5-1.29,9.35-3.16,5.48-6-7,1.19-7,1.19l-36.82.64Z"/><path id="_Path_9" data-name="&lt;Path&gt;" class="cls-13" d="M115.06,102.5,90.72,99.38c-8.34-1.06-13.07-7.94-12-16.29L82.47,55.9C83.54,47.55,89.72,41,98.06,42l24.34,3.11a12.07,12.07,0,0,1,10.4,13.46l-4.28,33.5A12.07,12.07,0,0,1,115.06,102.5Z"/><path id="_Path_10" data-name="&lt;Path&gt;" class="cls-14" d="M129.3,48.11l-4.35.4c-4.75.44-9.51.83-14.28,1.07l.62.84c1,1.38,2,2.76,3.09,4.14,3.76-.6,7.53-1.15,11.29-1.7q3.18-.47,6.34-1A11.52,11.52,0,0,0,129.3,48.11Z"/><path id="_Path_11" data-name="&lt;Path&gt;" class="cls-11" d="M96.45,102h0A20.7,20.7,0,0,1,78.6,78.94l1.76-13.75a20.69,20.69,0,0,1,23.09-17.85h0A20.7,20.7,0,0,1,121.3,70.43l-1.76,13.75A20.7,20.7,0,0,1,96.45,102Z"/><g id="_Group_" data-name="&lt;Group&gt;"><path class="cls-15" d="M131.38,58a11,11,0,0,0-9.63-12.32L96.29,42.45c0,.17-.07.35-.11.52l25.51,3.24a10.48,10.48,0,0,1,9.17,11.73l-2,17.18.53.06Z"/></g><path class="cls-4" d="M66.27,103.74l-5.43-3.87c.12-.21,6.07-8.14,13.49-18.28a39.74,39.74,0,0,0,7.64-27l5.83,1.59c.09.54.43,12.49-9.33,28.92C73.53,93.39,66.3,103.69,66.27,103.74Z"/><g class="cls-16"><path d="M87.8,56.15l-1-.27c-2.66,20.18-20.56,47.86-20.56,47.86s7.26-10.35,12.2-18.67C88.23,68.64,87.89,56.69,87.8,56.15Z"/></g><g id="_Group_2" data-name="&lt;Group&gt;"><path id="_Path_12" data-name="&lt;Path&gt;" class="cls-11" d="M116.19,48a2.11,2.11,0,0,1-2-1.58c-.48-1.92-2-4.91-6.77-5.36s-6.41,1.85-7.08,3.48a2.1,2.1,0,0,1-2.18,1.28h0a2.12,2.12,0,0,1-1.73-2.93c1.34-3.2,4.67-6.71,11.39-6.07s9.62,5,10.51,8.58a2.12,2.12,0,0,1-2.07,2.6Z"/></g><path class="cls-5" d="M83.89,71c-1.23-.3-2.47-.62-3.7-.94a40.29,40.29,0,0,1-5.55,11.05c1.48.95,3,1.84,4.54,2.7A74.5,74.5,0,0,0,84.9,71.4,10.18,10.18,0,0,1,83.89,71Z"/><path class="cls-17" d="M132,96.75c1.24-3.25,4.48-17.33,4.34-20.87-.12-3-5.27-3.46-5.27-3.46l-9.49-.34s-2.81,18.07-2.74,24.84C121.16,99.31,131.31,98.47,132,96.75Z"/><path class="cls-11" d="M135.29,83.31c.05-.26,0,0,.05-.25-5.16.83-10.34,1.36-15.55,1.75-.05.38-.09.76-.14,1.14A86.32,86.32,0,0,0,135.29,83.31Z"/><path class="cls-18" d="M136.28,75.48a2.41,2.41,0,0,0-.85-1.48q-7.14.47-14.27.65l-.5,3.46C125.88,77.29,131.09,76.47,136.28,75.48Z"/><path class="cls-11" d="M123,98.34c.69-2.91,1.42-7.16,1.79-10.13s.84-5.83.19-8.71c-.45-2-1.43-6.59-3.44-7.42-.06,0-2.78,18.24-2.74,24.84C119.7,97.83,121.16,98.17,123,98.34Z"/><path class="cls-15" d="M132.13,81.58c-.45.76-1.21,1.16-1.69.87s-.52-1.13-.08-1.9,1.21-1.16,1.69-.88S132.57,80.81,132.13,81.58Z"/><path class="cls-19" d="M132.42,81.63c-.45.76-1.2,1.16-1.69.87s-.52-1.13-.07-1.9,1.2-1.16,1.69-.88S132.86,80.86,132.42,81.63Z"/><path class="cls-20" d="M74,28.38a2.91,2.91,0,0,1,.24-.27,12.92,12.92,0,0,1,5.32-3C77.87,24.42,73.28,23,73.93,28,74,28.16,74,28.27,74,28.38Z"/><path class="cls-20" d="M75,35.59c.42-1.37.94-2.72,1.51-4.08.11-.27.23-.53.34-.79a2,2,0,0,1-1.55.3,1.33,1.33,0,0,0,.55.15c-1.52,1.16-2.76,2.7-1.31,4A5.3,5.3,0,0,0,75,35.59Z"/><path class="cls-20" d="M113,36.49c0,.3.07.6.1.89a.13.13,0,0,0,0,.06c.7.74,1.69,1.34,2.4,2.07a22.12,22.12,0,0,1,2,2.4c.32.44.61.89.88,1.35,2.39-1.19.38-3.55-.75-4.64A28.23,28.23,0,0,0,113,36.49Z"/><path class="cls-20" d="M117.45,25l-1.17,0a6.85,6.85,0,0,1,.43,1.35c1.08-.68,2.12-1.42,3.25-2a16.2,16.2,0,0,1,3.17-1.25C119.88,21.85,117.45,25,117.45,25Z"/><path class="cls-20" d="M122.42,29c-.71.28-1.41.58-2.09.91a26.9,26.9,0,0,1,3.54,1.41c0-.07,0-.14,0-.23C124.05,29.59,123.34,29.06,122.42,29Z"/><path class="cls-20" d="M121,34a14.38,14.38,0,0,0-7.23-1.23,33.51,33.51,0,0,1,9.42,5C123.73,36.5,122.41,35.1,121,34Z"/><path class="cls-20" d="M79.55,41.63c.3-1.68.54-3.36.75-5.06s.31-3.28.62-4.88c.1-.53.24-1,.35-1.54a16.27,16.27,0,0,0-1.68,3.67c-.18.42-.34.85-.5,1.27a3,3,0,0,0,.23-.29S76.45,40.77,79.55,41.63Z"/><path class="cls-4" d="M175.22,54a80.74,80.74,0,0,1-28.64,10.19C132.93,66,119.51,57,117.26,55.38l-.31-.22,0,0h0a23.38,23.38,0,0,0-8.52-3.27c-1.22,3.83-3.5,6.47-7.72,6.27-3.89-.19-7.08-4.43-6.8-8.3a33.43,33.43,0,0,0-7.63.33c-6.27.75-3.86,8.24-3.82,8.23.09,3.22.63,7.59.42,12.32-.35,8-2,17.13-5.43,24.21C75.64,98.58,95,108.15,113,107.11c6.4-22.85,7.9-36,8.25-41A53.32,53.32,0,0,0,134.77,71a38.51,38.51,0,0,0,12.79.51,87.13,87.13,0,0,0,31.58-11.26Z"/><path class="cls-5" d="M153.85,62.78a67.3,67.3,0,0,1-7.27,1.41,28.55,28.55,0,0,1-5.76.17c-.35,2.44-.74,4.87-1.12,7.29a36.45,36.45,0,0,0,7.86-.18,74.51,74.51,0,0,0,8.18-1.59C155.1,67.51,154.48,65.15,153.85,62.78Z"/><path class="cls-16" d="M158.75,68.69c-5.75,1.14-12.91,2-18.71,1.15a50.18,50.18,0,0,1-20.53-7.05c-1.9,7.76-3.74,14.2-4.11,22.23,1-.07,2.06-.18,3.09-.33a148.41,148.41,0,0,0,2.77-18.55A53.32,53.32,0,0,0,134.77,71a38.51,38.51,0,0,0,12.79.51,79.13,79.13,0,0,0,15.26-3.71C161.48,68.1,160.12,68.42,158.75,68.69Z"/><path class="cls-4" d="M112.54,63.56c1.12-3,2.19-5.92,3.12-8.94-4.48-3.06-14.29-4-16.65-4.29a52.33,52.33,0,0,0-7.2-.54c0,2.33-.55,4.63-.62,7C98.47,58.46,105.46,61.14,112.54,63.56Z"/><path class="cls-21" d="M110.51,70.72c-2.24-4.09-1.42-14.6.6-18.2a18,18,0,0,0-3-.74c-1.83,3.06-3.76,6.56-7.41,6.36-4.54-.25-7.49-5.35-7.54-8.41a14.5,14.5,0,0,0-2.87,0C89,56.18,87.55,62,84,67.28c-.44,8.25-4,20.44-7.1,27.48C75.23,98.48,95.76,110,113.8,109c3.54-12.66,4.79-24.19,6-31.15A15,15,0,0,1,110.51,70.72Z"/><path class="cls-16" d="M119.75,77.83a20.22,20.22,0,0,1-4.81,1.36c-11.26-14.19-3.69,2.38-5.14,4-.76.84,2.31.19-10.08-9.37-13-10,.44,16.55-.69,19.48-3.54,9.14-7.84-11.63-8.86-9.77-4.51,8.25-.62,11.68-2.39,12.43-3,1.26-3.61-24-8.85.08-.16.74-1.38-.91-1.92-1.6-.05.12-.11.24-.16.35C75.07,98.41,95.76,110,113.8,109c3.54-12.66,4.79-24.19,6-31.15Z"/><path id="_Path_13" data-name="&lt;Path&gt;" class="cls-22" d="M96.15,82.15h0C96.18,82.21,96.2,82.28,96.15,82.15Z"/><path id="_Path_14" data-name="&lt;Path&gt;" class="cls-22" d="M96.15,82.15h0C96.1,82,96.12,82.09,96.15,82.15Z"/><polygon id="_Path_15" data-name="&lt;Path&gt;" class="cls-22" points="96.15 82.15 96.15 82.15 96.15 82.15 96.15 82.15"/><path id="_Path_16" data-name="&lt;Path&gt;" class="cls-4" d="M101.73,55.9h0A3.85,3.85,0,0,0,105,51.54L104,45.11a3.87,3.87,0,0,0-4.36-3.25h0a3.85,3.85,0,0,0-3.24,4.36l.94,6.43A3.87,3.87,0,0,0,101.73,55.9Z"/><path class="cls-16" d="M96.94,49.73a32.37,32.37,0,0,0,7.65-.83l-.59-4a3.63,3.63,0,0,0-4.11-3.05l-.44.07A3.63,3.63,0,0,0,96.39,46Z"/><path id="_Path_17" data-name="&lt;Path&gt;" class="cls-23" d="M79.06,31.52c.33,2.35,2,4.06,3.77,3.81s2.9-2.36,2.56-4.71-2-4.07-3.77-3.82S78.72,29.16,79.06,31.52Z"/><path id="_Path_18" data-name="&lt;Path&gt;" class="cls-4" d="M98.05,47.6h0a17.2,17.2,0,0,0,17.82-16.45l.1-2.5A17.2,17.2,0,0,0,99.51,10.84h0A17.2,17.2,0,0,0,81.7,27.29l-.1,2.5A17.19,17.19,0,0,0,98.05,47.6Z"/><path id="_Path_19" data-name="&lt;Path&gt;" class="cls-24" d="M103.38,34.05a1.11,1.11,0,0,1,.94,1.51c-1.12,3.43-3.55,5.85-6.43,6s-5.5-2.1-6.88-5.43a1.09,1.09,0,0,1,.81-1.57Z"/><path id="_Path_20" data-name="&lt;Path&gt;" class="cls-4" d="M113.09,31.71c-.22,2.37.27,4.53,2,5s3.59-1,4.2-3.33-.28-4.46-2-5C114.24,27.42,113.32,29.27,113.09,31.71Z"/><path class="cls-12" d="M117.45,25a27.5,27.5,0,0,0-2.75-11.23,13.26,13.26,0,0,0-1.76-2.7A15.27,15.27,0,0,0,111.47,10,18.19,18.19,0,0,0,108,8.16a27.34,27.34,0,0,0-6.55-1,25.32,25.32,0,0,0-15.63,5c-4.57,3.31-5.69,9.42-5.19,13.45a23.55,23.55,0,0,0,1,2.43s2.38-7.84,8-10.75c2.27-1.19,5.72,1.33,8.86,1.51s5.78-2.05,8-1.16c7.09,2.94,9.54,10.61,9.55,10.61A33.37,33.37,0,0,1,117.45,25Z"/><g id="_Group_3" data-name="&lt;Group&gt;"><path id="_Path_21" data-name="&lt;Path&gt;" class="cls-25" d="M88.9,25.15c-1.17-.06-2.18,1.13-2.24,2.65s.83,2.79,2,2.84S90.84,29.5,90.91,28,90.08,25.2,88.9,25.15Z"/><path id="_Path_22" data-name="&lt;Path&gt;" class="cls-25" d="M106.81,25.35c-1.17-.05-2.18,1.14-2.24,2.66s.83,2.79,2,2.84,2.18-1.14,2.24-2.66A2.51,2.51,0,0,0,106.81,25.35Z"/><path id="_Path_23" data-name="&lt;Path&gt;" class="cls-18" d="M86.66,27.8c-.07,1.52.83,2.79,2,2.84a2.1,2.1,0,0,0,1.91-1.34c-1-1.22-2-2.44-3-3.63A3.1,3.1,0,0,0,86.66,27.8Z"/><path id="_Path_24" data-name="&lt;Path&gt;" class="cls-18" d="M104.57,28c-.07,1.51.83,2.79,2,2.84a2.12,2.12,0,0,0,1.89-1.29c-1-1.19-2-2.4-3-3.65A3.09,3.09,0,0,0,104.57,28Z"/></g><path class="cls-26" d="M80.57,25.19S78.17-3.47,101.7.35C124.61,4.08,117.45,25,117.45,25s-4.21-10.43-23.21-9.58C79.81,16.06,80.57,25.19,80.57,25.19Z"/><path class="cls-20" d="M96.41,6.45a21.67,21.67,0,0,0,7.36-5.7c-.66-.15-1.35-.28-2.07-.4-10.64-1.73-16,3.18-18.63,9.08A29.9,29.9,0,0,0,96.41,6.45Z"/><path class="cls-20" d="M80.51,23.31c0,1.17.06,1.88.06,1.88a6.64,6.64,0,0,1,.2-1.86Z"/><path class="cls-27" d="M106.35,16.69c8.8,2.64,11.1,8.3,11.1,8.3s3.27-9.56-1.7-16.91A37.53,37.53,0,0,1,106.35,16.69Z"/><path class="cls-12" d="M92.64,12.88s-3.15-8.72,6.53-7.59,5,8.23,5,8.23A63.55,63.55,0,0,0,92.64,12.88Z"/><path class="cls-20" d="M96.3,5.27a5.83,5.83,0,0,0-2,.63,10.79,10.79,0,0,0,.39,6.91l1.34,0A17.44,17.44,0,0,1,96.3,5.27Z"/><path class="cls-20" d="M103,6.34a7.6,7.6,0,0,0-1.24-.51c-1.45,1.9-1.93,4.66-1.91,7.2l1.39.13A12.24,12.24,0,0,1,103,6.34Z"/><path class="cls-20" d="M105.16,8.89a3.74,3.74,0,0,0-1.28-2,11.17,11.17,0,0,0-1.59,6.35l.76.09A15.32,15.32,0,0,1,105.16,8.89Z"/><path class="cls-20" d="M100,5.41c-.27,0-.54-.09-.83-.12a14,14,0,0,0-1.76-.1,16.24,16.24,0,0,0-.34,7.67l1,.05A15.06,15.06,0,0,1,100,5.41Z"/><path class="cls-28" d="M92,13l.19,2.25a.39.39,0,0,0,.39.35c1.58-.06,8-.23,11.52.55,1.8.39,3.31-2.19.24-2.85a52.39,52.39,0,0,0-12.06-.64A.31.31,0,0,0,92,13Z"/><path class="cls-4" d="M61.69,99.2a1,1,0,0,1,0,.38c0,.48-.24.83-.23,1.32,0,.25.09.83-.18,1s-.61.05-.84.14c-1.69.67-3.17,2-5,2.15a2.15,2.15,0,0,1-1.15-.15,1.15,1.15,0,0,1-.67-.9,13.09,13.09,0,0,0,1.86-.62,4,4,0,0,0,1.14-.65,7,7,0,0,0,.86-1,6.8,6.8,0,0,1,1.93-1.65c.46-.26,3.39-2,3.88-1.7C63.43,97.57,61.64,99,61.69,99.2Z"/><path class="cls-4" d="M59.81,101s-6,11.38-4.42,12.92,2-3.36,2-3.36A23.49,23.49,0,0,0,60,106a16.08,16.08,0,0,0,.21,5.79c.29,1,3.72,4.77,4.28,4.26,1.39-1.3-2.76-5.14-2.76-5.14l.2-4.38a23.51,23.51,0,0,0,1.43,4.57c.62,1.48,5.28,2.17,5.28,2.17,1.29-2.27-3.73-2.57-3.73-2.57l-.4-4.19a26.43,26.43,0,0,0,2.77,3.54c1.1,1,4.84-.7,4.84-.7-.27-2.15-4.5-.57-4.5-.57l.07-7S62,98.05,59.81,101Z"/><path class="cls-4" d="M175.5,52.54a6.86,6.86,0,0,0,2.31-1.64c2.26-2.49,7.85-8.4,8.91-7.31,1.76,1.82-6.78,8-6.78,8s3.21-1.15,5-.78,6.83.47,6.32,1.43c-1.5,2.81-6.66.21-6.66.21l-4.82,1.68,6.41,1.29s3.51,4.41,2.82,5.48c-1.39,2.14-3.21-1.47-3.43-3.46l-4.46-.39L185,61.2s-1.29,3.7-2.85,4.26c-1.77.62,0-3.67,1-3.94L181,59.69l-8.3,4-2.89-5.55s2.59-5.92,2.91-8.12-.95-3.71,1.12-2.6.33,5.71.33,5.71Z"/><path id="_Path_25" data-name="&lt;Path&gt;" class="cls-13" d="M78.44,89.88c0,.31,6.65-2.32,8.76-10.86,2.4-9.68,5.93-27.53,6.57-30.4a.38.38,0,0,0-.37-.46H87.29a.54.54,0,0,0-.53.46C86.3,52,82.49,73.45,79.82,80.87,79.66,81.33,78.44,89.88,78.44,89.88Z"/><path id="_Path_26" data-name="&lt;Path&gt;" class="cls-13" d="M113.53,50.08l-5.3-.55a.84.84,0,0,0-.9.56c-1.8,5.12-13.61,36.77,9.55,47.35a1.09,1.09,0,0,0,1.21-.63l.69-6.66c0-.45-.46-.8-.87-1-1.53-.71-4.58-.33-6.86-7.59-2.62-8.31,2-26.37,3.14-30.52A.76.76,0,0,0,113.53,50.08Z"/><path class="cls-29" d="M43.93,197.43c0,2.71-1.69,4.91-3.78,4.91s-3.78-2.2-3.78-4.91,1.69-4.92,3.78-4.92S43.93,194.71,43.93,197.43Z"/><rect class="cls-29" x="40.15" y="192.51" width="5.11" height="9.83"/><path class="cls-30" d="M49,197.43c0,2.71-1.7,4.91-3.78,4.91s-3.79-2.2-3.79-4.91,1.7-4.92,3.79-4.92S49,194.71,49,197.43Z"/><path class="cls-29" d="M47.49,197.43c0,1.6-1,2.9-2.23,2.9S43,199,43,197.43s1-2.91,2.24-2.91S47.49,195.82,47.49,197.43Z"/><path class="cls-31" d="M61.49,198.56H45.4a1.14,1.14,0,0,1-1.14-1.13h0a1.14,1.14,0,0,1,1.14-1.14H61.49a1.14,1.14,0,0,1,1.14,1.14h0A1.14,1.14,0,0,1,61.49,198.56Z"/><path class="cls-2" d="M89.06,184.53H56.49l-14.16-7.88a52.19,52.19,0,0,0-11.72-1.91c-6,0-9.6,2.18-9.78,2.53a1.17,1.17,0,0,0,.48,1.58l11.05,5.84a18.8,18.8,0,0,0,8.78,2.17H89.06Z"/><path class="cls-32" d="M62.81,196.34c-.67-.65-1.61-1.61-2.39-2.4A4.89,4.89,0,0,1,59,190.53v-1.88a1.37,1.37,0,0,0-1.37-1.36h-2a1.36,1.36,0,0,0-1.36,1.36V191a4.4,4.4,0,0,1-1.17,3l-2.18,2.33Z"/><path class="cls-31" d="M60.3,197.1c-.11,0-1.91-1.81-3.23-3.16a4.89,4.89,0,0,1-1.39-3.41v-1.88a1.36,1.36,0,0,0-1.36-1.36h-2a1.36,1.36,0,0,0-1.36,1.36V191a4.4,4.4,0,0,1-1.17,3L47,196.94a.1.1,0,0,0,.08.16h3.73a.1.1,0,0,1,.1.1h0a1.36,1.36,0,0,0,1.36,1.36h2a1.36,1.36,0,0,0,1.36-1.36h0a.1.1,0,0,1,.1-.1Z"/><path class="cls-3" d="M92,184.53H56.49l-14.16-7.88a52.19,52.19,0,0,0-11.72-1.91c-6,0-9.6,2.18-9.78,2.53a1.17,1.17,0,0,0,.48,1.58l.4.21a19.47,19.47,0,0,1,8.9-1.92,52.19,52.19,0,0,1,11.72,1.91L61,186.86H92Z"/><path class="cls-29" d="M64.88,197.43c0,2.71-1.69,4.91-3.78,4.91s-3.78-2.2-3.78-4.91,1.69-4.92,3.78-4.92S64.88,194.71,64.88,197.43Z"/><path class="cls-2" d="M90.55,184.53H56.49l-14.16-7.88a52.19,52.19,0,0,0-11.72-1.91c-6,0-9.6,2.18-9.78,2.53a1.17,1.17,0,0,0,.48,1.58l11.05,5.84a18.8,18.8,0,0,0,8.78,2.17H90.55Z"/><path class="cls-3" d="M92.32,184.53H56.49l-14.16-7.88a52.19,52.19,0,0,0-11.72-1.91c-6,0-9.6,2.18-9.78,2.53a1.17,1.17,0,0,0,.48,1.58l.4.21a19.47,19.47,0,0,1,8.9-1.92,52.19,52.19,0,0,1,11.72,1.91L61,186.86H92.32Z"/><path class="cls-2" d="M91.25,184.53H56.49l-14.16-7.88a52.19,52.19,0,0,0-11.72-1.91c-6,0-9.6,2.18-9.78,2.53a1.17,1.17,0,0,0,.48,1.58l11.05,5.84a18.8,18.8,0,0,0,8.78,2.17H91.25Z"/><path class="cls-3" d="M92.74,184.52H56.49l-14.16-7.88a52.19,52.19,0,0,0-11.72-1.91c-6,0-9.6,2.18-9.78,2.53a1.17,1.17,0,0,0,.48,1.58l.4.21a19.47,19.47,0,0,1,8.9-1.92,52.19,52.19,0,0,1,11.72,1.91L61,186.86H92.74Z"/><path class="cls-2" d="M80.17,184.53H56.49l-14.16-7.88a52.19,52.19,0,0,0-11.72-1.91c-6,0-9.6,2.18-9.78,2.53a1.17,1.17,0,0,0,.48,1.58l11.05,5.84a18.8,18.8,0,0,0,8.78,2.17h39Z"/><path class="cls-3" d="M80.17,184.53H56.49l-14.16-7.88a52.19,52.19,0,0,0-11.72-1.91c-6,0-9.6,2.18-9.78,2.53a1.17,1.17,0,0,0,.48,1.58l.4.21a19.47,19.47,0,0,1,8.9-1.92,52.19,52.19,0,0,1,11.72,1.91L61,186.86H80.17Z"/><rect class="cls-2" x="60.49" y="184.53" width="19.68" height="2.33"/><path class="cls-33" d="M80.17,184.53H56.49l-14.16-7.88a52.19,52.19,0,0,0-11.72-1.91c-6,0-9.6,2.18-9.78,2.53a1.17,1.17,0,0,0,.48,1.58l11.05,5.84a18.8,18.8,0,0,0,8.78,2.17h39Z"/><path class="cls-3" d="M80.17,184.53H56.49l-14.16-7.88a52.19,52.19,0,0,0-11.72-1.91c-6,0-9.6,2.18-9.78,2.53a1.17,1.17,0,0,0,.48,1.58l.4.21a19.47,19.47,0,0,1,8.9-1.92,52.19,52.19,0,0,1,11.72,1.91L61,186.86H80.17Z"/><rect class="cls-2" x="60.49" y="184.53" width="19.68" height="2.33"/><rect class="cls-29" x="61.1" y="192.51" width="5.11" height="9.83"/><path class="cls-34" d="M133.06,176.71a1.13,1.13,0,0,0-.8.13l-8.32,4.74a22.51,22.51,0,0,1-11.13,2.95H61.61a16.36,16.36,0,0,1-7.68-1.91l-11-5.84a1.17,1.17,0,0,0-1.09,2.07l11.05,5.84a18.79,18.79,0,0,0,8.77,2.17h51.2a24.81,24.81,0,0,0,12.28-3.25l7.75-4.42A2,2,0,0,0,133.06,176.71Z"/><path class="cls-30" d="M70,197.43c0,2.71-1.7,4.91-3.79,4.91s-3.78-2.2-3.78-4.91,1.7-4.92,3.78-4.92S70,194.71,70,197.43Z"/><path class="cls-29" d="M68.44,197.43c0,1.6-1,2.9-2.24,2.9S64,199,64,197.43s1-2.91,2.23-2.91S68.44,195.82,68.44,197.43Z"/><path class="cls-30" d="M66.21,197.43a.91.91,0,1,1-.88-1.14A1,1,0,0,1,66.21,197.43Z"/><rect class="cls-30" x="65.33" y="196.29" width="1.18" height="2.27"/><path class="cls-35" d="M67.38,197.43a.9.9,0,1,1-.87-1.14A1,1,0,0,1,67.38,197.43Z"/><path class="cls-32" d="M59.39,189.32H58.26a.4.4,0,0,1-.41-.4h0a.41.41,0,0,1,.41-.41h1.13a.41.41,0,0,1,.41.41h0A.4.4,0,0,1,59.39,189.32Z"/><path class="cls-32" d="M63.26,188.72h-14a.93.93,0,0,1-.93-.93h0a.93.93,0,0,1,.93-.93h14a.93.93,0,0,1,.93.93h0A.93.93,0,0,1,63.26,188.72Z"/><path class="cls-31" d="M59.15,188.72H47a.93.93,0,0,1-.92-.93h0a.93.93,0,0,1,.92-.93H59.15a.93.93,0,0,1,.93.93h0A.93.93,0,0,1,59.15,188.72Z"/><path class="cls-31" d="M48.86,189.32H47.73a.4.4,0,0,1-.41-.4h0a.41.41,0,0,1,.41-.41h1.13a.41.41,0,0,1,.41.41h0A.4.4,0,0,1,48.86,189.32Z"/><path class="cls-31" d="M51.82,189.32H50.69a.4.4,0,0,1-.41-.4h0a.41.41,0,0,1,.41-.41h1.13a.41.41,0,0,1,.41.41h0A.4.4,0,0,1,51.82,189.32Z"/><path class="cls-32" d="M62.35,189.32H61.22a.4.4,0,0,1-.41-.4h0a.41.41,0,0,1,.41-.41h1.13a.41.41,0,0,1,.41.41h0A.4.4,0,0,1,62.35,189.32Z"/><path class="cls-29" d="M94.84,197.43c0,2.71-1.7,4.91-3.79,4.91s-3.78-2.2-3.78-4.91,1.7-4.92,3.78-4.92S94.84,194.71,94.84,197.43Z"/><rect class="cls-29" x="91.05" y="192.51" width="5.11" height="9.83"/><path class="cls-30" d="M99.94,197.43c0,2.71-1.69,4.91-3.78,4.91s-3.78-2.2-3.78-4.91,1.69-4.92,3.78-4.92S99.94,194.71,99.94,197.43Z"/><path class="cls-29" d="M98.4,197.43c0,1.6-1,2.9-2.24,2.9s-2.24-1.3-2.24-2.9,1-2.91,2.24-2.91S98.4,195.82,98.4,197.43Z"/><path class="cls-31" d="M112.4,198.56H96.3a1.14,1.14,0,0,1-1.13-1.13h0a1.14,1.14,0,0,1,1.13-1.14h16.1a1.14,1.14,0,0,1,1.13,1.14h0A1.14,1.14,0,0,1,112.4,198.56Z"/><path class="cls-32" d="M113.71,196.34c-.66-.65-1.61-1.61-2.39-2.4a4.89,4.89,0,0,1-1.39-3.41v-1.88a1.36,1.36,0,0,0-1.36-1.36h-2a1.36,1.36,0,0,0-1.36,1.36V191a4.4,4.4,0,0,1-1.17,3l-2.18,2.33Z"/><path class="cls-31" d="M111.2,197.1c-.11,0-1.91-1.81-3.23-3.16a4.89,4.89,0,0,1-1.39-3.41v-1.88a1.36,1.36,0,0,0-1.36-1.36h-2a1.37,1.37,0,0,0-1.37,1.36V191a4.4,4.4,0,0,1-1.17,3l-2.73,2.93a.09.09,0,0,0,.07.16h3.74a.1.1,0,0,1,.09.1h0a1.37,1.37,0,0,0,1.37,1.36h2a1.36,1.36,0,0,0,1.36-1.36h0a.11.11,0,0,1,.1-.1Z"/><path class="cls-29" d="M115.78,197.43c0,2.71-1.69,4.91-3.78,4.91s-3.78-2.2-3.78-4.91,1.69-4.92,3.78-4.92S115.78,194.71,115.78,197.43Z"/><rect class="cls-29" x="112" y="192.51" width="5.11" height="9.83"/><path class="cls-30" d="M120.89,197.43c0,2.71-1.69,4.91-3.78,4.91s-3.78-2.2-3.78-4.91,1.69-4.92,3.78-4.92S120.89,194.71,120.89,197.43Z"/><path class="cls-29" d="M119.34,197.43c0,1.6-1,2.9-2.23,2.9s-2.24-1.3-2.24-2.9,1-2.91,2.24-2.91S119.34,195.82,119.34,197.43Z"/><path class="cls-30" d="M117.11,197.43a.91.91,0,1,1-.87-1.14A1,1,0,0,1,117.11,197.43Z"/><rect class="cls-30" x="116.24" y="196.29" width="1.18" height="2.27"/><path class="cls-35" d="M118.29,197.43a.91.91,0,1,1-.88-1.14A1,1,0,0,1,118.29,197.43Z"/><path class="cls-32" d="M110.29,189.32h-1.13a.4.4,0,0,1-.41-.4h0a.41.41,0,0,1,.41-.41h1.13a.41.41,0,0,1,.41.41h0A.4.4,0,0,1,110.29,189.32Z"/><path class="cls-32" d="M114.17,188.72h-14a.93.93,0,0,1-.93-.93h0a.93.93,0,0,1,.93-.93h14a.93.93,0,0,1,.93.93h0A.93.93,0,0,1,114.17,188.72Z"/><path class="cls-31" d="M110.05,188.72H97.9a.93.93,0,0,1-.93-.93h0a.93.93,0,0,1,.93-.93h12.15a.93.93,0,0,1,.93.93h0A.93.93,0,0,1,110.05,188.72Z"/><path class="cls-31" d="M99.76,189.32H98.63a.4.4,0,0,1-.41-.4h0a.41.41,0,0,1,.41-.41h1.13a.41.41,0,0,1,.41.41h0A.4.4,0,0,1,99.76,189.32Z"/><path class="cls-31" d="M102.72,189.32h-1.13a.4.4,0,0,1-.41-.4h0a.41.41,0,0,1,.41-.41h1.13a.41.41,0,0,1,.41.41h0A.4.4,0,0,1,102.72,189.32Z"/><path class="cls-32" d="M113.25,189.32h-1.13a.4.4,0,0,1-.41-.4h0a.41.41,0,0,1,.41-.41h1.13a.41.41,0,0,1,.41.41h0A.4.4,0,0,1,113.25,189.32Z"/></g></g></svg>